<svg xmlns="http://www.w3.org/2000/svg" xmlns:xlink="http://www.w3.org/1999/xlink" width="600" height="592.821" xmlns:v="https://vecta.io/nano"><style><![CDATA[.B{fill:#263238}.C{fill:#e0e0e0}.D{fill:#008ad8}.E{fill:#455a64}.F{fill:#fff}.G{fill:#ebebeb}.H{fill:#f5f5f5}.I{fill:#fafafa}.J{fill:#ffbe9d}.K{fill:#eb996e}]]></style><path d="M.354 26.761h130.907v169.756H.354z" class="G"/><g class="C"><path d="M9.293 155.595c.22-.034.444.001.643.1.593.286 1.017.836 1.142 1.483a2.01 2.01 0 0 1-.184 1.378 2.39 2.39 0 0 1-1.312 1.076 2.47 2.47 0 0 1-1.9 0c-.661-.319-1.191-.857-1.5-1.523a4.86 4.86 0 0 1 .5-4.7 4.91 4.91 0 0 1 2.008-1.851c.445-.218.936-.326 1.431-.315a2.94 2.94 0 0 1 1.431.473c.837.612 1.468 1.464 1.809 2.444.355.993.567 2.031.63 3.084a11.5 11.5 0 0 1-1.509 6.352c-1.172 1.851-2.488 3.606-3.937 5.25a15.63 15.63 0 0 0-2.927 5.04c-.556 1.73-.434 3.607.341 5.25a4.1 4.1 0 0 0 3.7 2.271 3.36 3.36 0 0 0 1.877-.591c.478-.348.825-.847.984-1.417a3.44 3.44 0 0 0-.5-2.756 2.4 2.4 0 0 0-1.431-1.05 1.72 1.72 0 0 0-.486 0h0c.165-.032.335-.032.5 0 .641.117 1.205.492 1.562 1.037a3.65 3.65 0 0 1 .591 2.914c-.156.634-.533 1.193-1.063 1.575-.589.425-1.295.658-2.021.669a4.36 4.36 0 0 1-4.054-2.528c-.822-1.708-.967-3.663-.407-5.473a15.75 15.75 0 0 1 3.019-5.25 39.23 39.23 0 0 0 3.951-5.211c1.069-1.855 1.579-3.978 1.47-6.116a10.36 10.36 0 0 0-.592-2.95 4.79 4.79 0 0 0-1.641-2.271 2.47 2.47 0 0 0-2.494-.144 4.59 4.59 0 0 0-1.864 1.706c-.922 1.267-1.12 2.922-.525 4.371.267.601.729 1.095 1.312 1.4a2.2 2.2 0 0 0 2.861-.866 1.8 1.8 0 0 0 .21-1.247c-.107-.608-.483-1.134-1.024-1.431a2.53 2.53 0 0 0-.601-.183zm1.141-15.448c-.223.034-.451.002-.656-.092-.59-.291-1.011-.839-1.142-1.483a2.01 2.01 0 0 1 .184-1.378 2.39 2.39 0 0 1 1.312-1.076 2.44 2.44 0 0 1 1.916 0c.643.35 1.151.904 1.444 1.575a4.88 4.88 0 0 1-.512 4.712 5.04 5.04 0 0 1-1.995 1.851 3.11 3.11 0 0 1-1.431.3 2.86 2.86 0 0 1-1.444-.473 5.11 5.11 0 0 1-1.811-2.441 10.5 10.5 0 0 1-.617-3.084 11.31 11.31 0 0 1 1.509-6.339c1.165-1.855 2.482-3.609 3.937-5.246 1.317-1.499 2.325-3.243 2.966-5.132.556-1.729.439-3.604-.328-5.25a4.11 4.11 0 0 0-3.714-2.271 3.28 3.28 0 0 0-1.864.591c-.484.345-.837.845-1 1.417-.219.948-.038 1.945.5 2.756.319.531.84.91 1.444 1.05a1.76 1.76 0 0 0 .472 0h0a1.47 1.47 0 0 1-.486 0 2.35 2.35 0 0 1-1.562-1.05 3.62 3.62 0 0 1-.6-2.9c.169-.632.543-1.19 1.063-1.588a3.66 3.66 0 0 1 2.034-.669 4.37 4.37 0 0 1 2.271.577c.76.419 1.374 1.06 1.759 1.837.811 1.711.951 3.664.394 5.473a15.55 15.55 0 0 1-3.019 5.25 42.8 42.8 0 0 0-3.872 5.171 10.97 10.97 0 0 0-1.457 6.116 10.01 10.01 0 0 0 .591 2.953 4.71 4.71 0 0 0 1.627 2.257c.749.496 1.706.551 2.507.144 2.181-1.158 3.194-3.73 2.389-6.064-.269-.604-.73-1.103-1.312-1.417-.533-.26-1.151-.289-1.706-.079a2.18 2.18 0 0 0-1.168.945c-.233.395-.304.865-.2 1.312a2.01 2.01 0 0 0 1.011 1.444 2.1 2.1 0 0 0 .564.3zm.748 7.415a1.312 1.312 0 1 1-2.624 0 1.31 1.31 0 1 1 2.624 0z"/><circle cx="10.435" cy="112.099" r="1.326"/><path d="M9.87 68.472a2.73 2.73 0 0 0 .617-.184c.538-.304.909-.835 1.011-1.444a1.73 1.73 0 0 0-.21-1.312 2.05 2.05 0 0 0-1.155-.945c-.555-.21-1.173-.181-1.706.079a2.99 2.99 0 0 0-1.312 1.417c-.82 2.341.196 4.931 2.389 6.09a2.47 2.47 0 0 0 2.507-.158c.761-.574 1.328-1.366 1.627-2.271a10.01 10.01 0 0 0 .591-2.953c.093-2.132-.428-4.245-1.5-6.09a40.36 40.36 0 0 0-3.937-5.25 15.83 15.83 0 0 1-3.019-5.25 7.55 7.55 0 0 1 .407-5.486 4.41 4.41 0 0 1 1.746-1.851c.72-.389 1.532-.575 2.349-.538a3.56 3.56 0 0 1 2.021.683c.53.382.907.941 1.063 1.575a3.64 3.64 0 0 1-.591 2.914 2.33 2.33 0 0 1-1.562 1.05c-.165.032-.335.032-.5 0h.013a1.68 1.68 0 0 0 .472 0 2.35 2.35 0 0 0 1.431-1.063 3.44 3.44 0 0 0 .5-2.756c-.121-.599-.457-1.133-.945-1.5a3.33 3.33 0 0 0-1.877-.6 4.08 4.08 0 0 0-3.741 2.323 7.21 7.21 0 0 0-.341 5.25 15.64 15.64 0 0 0 2.966 5.145 40.66 40.66 0 0 1 3.937 5.25 11.47 11.47 0 0 1 1.509 6.352 10.5 10.5 0 0 1-.63 3.084c-.35.961-.987 1.79-1.825 2.376-.429.289-.928.457-1.444.486A3.12 3.12 0 0 1 9.3 72.58a4.99 4.99 0 0 1-2.003-1.854 4.88 4.88 0 0 1-.5-4.712 3.15 3.15 0 0 1 1.5-1.536c.608-.254 1.292-.254 1.9 0 .557.188 1.024.576 1.312 1.089.22.4.285.867.184 1.312a2.06 2.06 0 0 1-1.142 1.483 1.08 1.08 0 0 1-.681.11zm.394 15.486a2.1 2.1 0 0 0-.617.171 2.01 2.01 0 0 0-1.011 1.509c-.1.447-.029.915.2 1.312a2.18 2.18 0 0 0 1.168.945 2.15 2.15 0 0 0 1.706-.079 2.99 2.99 0 0 0 1.312-1.417 4.58 4.58 0 0 0-.525-4.384 4.67 4.67 0 0 0-1.864-1.706c-.802-.409-1.763-.348-2.507.158a4.62 4.62 0 0 0-1.627 2.271 9.92 9.92 0 0 0-.564 2.9 11.14 11.14 0 0 0 1.457 6.129 42.96 42.96 0 0 0 3.872 5.184 15.48 15.48 0 0 1 3.019 5.25 7.48 7.48 0 0 1-.394 5.486 4.3 4.3 0 0 1-1.746 1.838 4.53 4.53 0 0 1-2.284.591 3.55 3.55 0 0 1-2.021-.682 2.82 2.82 0 0 1-1.063-1.588 3.66 3.66 0 0 1 .591-2.914c.352-.55.919-.926 1.562-1.037a1.55 1.55 0 0 1 .486 0h0a1.29 1.29 0 0 0-.472 0 2.36 2.36 0 0 0-1.444 1.063c-.538.811-.719 1.808-.5 2.756.163.572.516 1.072 1 1.417a3.23 3.23 0 0 0 1.877.591 4.08 4.08 0 0 0 3.7-2.284 7.14 7.14 0 0 0 .328-5.25 15.2 15.2 0 0 0-2.966-5.145A40.57 40.57 0 0 1 7 91.793a11.51 11.51 0 0 1-1.518-6.364 10.66 10.66 0 0 1 .617-3.084 5.25 5.25 0 0 1 1.811-2.454 2.94 2.94 0 0 1 1.431-.472 3.15 3.15 0 0 1 1.444.315 5.04 5.04 0 0 1 2.021 1.969 4.88 4.88 0 0 1 .512 4.712c-.317.663-.844 1.203-1.5 1.536a2.4 2.4 0 0 1-1.9 0 2.3 2.3 0 0 1-1.312-1.076c-.22-.4-.285-.867-.184-1.312.119-.652.537-1.211 1.129-1.509.221-.105.469-.137.709-.092z"/><circle cx="10.435" cy="76.518" r="1.326"/><path d="M119.803 155.594c.224-.034.453.001.656.1.59.291 1.011.839 1.142 1.483a2.01 2.01 0 0 1-.184 1.378 2.39 2.39 0 0 1-1.312 1.076c-.613.254-1.303.254-1.916 0a3.24 3.24 0 0 1-1.5-1.522c-.655-1.55-.461-3.328.512-4.7a4.95 4.95 0 0 1 1.995-1.851 3.12 3.12 0 0 1 1.431-.315 3 3 0 0 1 1.444.473 5.1 5.1 0 0 1 1.811 2.441 10.66 10.66 0 0 1 .617 3.084 11.38 11.38 0 0 1-1.509 6.352 40.25 40.25 0 0 1-3.937 5.25 15.2 15.2 0 0 0-2.966 5.145c-.56 1.728-.443 3.605.328 5.25a4.11 4.11 0 0 0 3.714 2.271 3.28 3.28 0 0 0 1.864-.591c.484-.345.837-.845 1-1.417a3.49 3.49 0 0 0-.5-2.756 2.39 2.39 0 0 0-1.444-1.05 1.64 1.64 0 0 0-.472 0h0a1.18 1.18 0 0 1 .486 0c.643.111 1.21.487 1.562 1.037a3.65 3.65 0 0 1 .6 2.914c-.166.63-.541 1.185-1.063 1.575-.593.427-1.303.66-2.034.669a4.49 4.49 0 0 1-2.271-.564 4.41 4.41 0 0 1-1.759-1.837c-.811-1.711-.951-3.664-.394-5.473a15.48 15.48 0 0 1 3.019-5.25 41.66 41.66 0 0 0 3.937-5.158 11 11 0 0 0 1.457-6.116 9.92 9.92 0 0 0-.591-2.953c-.299-.905-.866-1.697-1.627-2.271-.749-.496-1.706-.551-2.507-.144-2.174 1.17-3.184 3.74-2.389 6.077.27.599.732 1.092 1.312 1.4a2.17 2.17 0 0 0 1.706.092 2.2 2.2 0 0 0 1.168-.958c.216-.377.288-.821.2-1.247a1.98 1.98 0 0 0-1.011-1.431 2.53 2.53 0 0 0-.575-.463zm1.13-15.447c-.223.034-.451.002-.656-.092a2.09 2.09 0 0 1-1.144-1.482 2.01 2.01 0 0 1 .184-1.378 2.48 2.48 0 0 1 3.163-1.024 3.24 3.24 0 0 1 1.5 1.523 4.88 4.88 0 0 1-.5 4.712 4.98 4.98 0 0 1-2.008 1.851 3.09 3.09 0 0 1-1.431.3 2.81 2.81 0 0 1-1.431-.472 5.1 5.1 0 0 1-1.811-2.441 10.92 10.92 0 0 1-.63-3.084 11.42 11.42 0 0 1 1.509-6.339 40.79 40.79 0 0 1 3.937-5.25 15.59 15.59 0 0 0 2.966-5.132 7.21 7.21 0 0 0-.341-5.25 4.1 4.1 0 0 0-3.7-2.271 3.36 3.36 0 0 0-1.877.591c-.478.348-.825.847-.984 1.417a3.44 3.44 0 0 0 .5 2.756 2.3 2.3 0 0 0 1.431 1.05 1.85 1.85 0 0 0 .486 0h0a1.55 1.55 0 0 1-.5 0 2.36 2.36 0 0 1-1.549-1.05 3.57 3.57 0 0 1-.6-2.9 2.82 2.82 0 0 1 1.063-1.588 3.65 3.65 0 0 1 2.021-.669 4.38 4.38 0 0 1 2.284.577 4.3 4.3 0 0 1 1.746 1.837c.822 1.708.967 3.663.407 5.473a15.75 15.75 0 0 1-3.019 5.25c-1.45 1.615-2.766 3.344-3.937 5.171a11.09 11.09 0 0 0-1.47 6.116 10.5 10.5 0 0 0 .591 2.953 4.81 4.81 0 0 0 1.641 2.257c.744.496 1.698.552 2.494.144 2.194-1.145 3.212-3.73 2.389-6.064-.269-.604-.73-1.103-1.312-1.417a2.23 2.23 0 0 0-2.861.866 1.8 1.8 0 0 0-.21 1.313 2.06 2.06 0 0 0 1.024 1.444 2.02 2.02 0 0 0 .635.302zm.747 7.415a1.312 1.312 0 1 1-2.624 0 1.31 1.31 0 1 1 2.624 0z"/><circle cx="120.932" cy="112.099" r="1.326"/><path d="M120.355 68.472a2.55 2.55 0 0 0 .617-.184 2.01 2.01 0 0 0 1.011-1.444 1.8 1.8 0 0 0-.2-1.312 2.09 2.09 0 0 0-1.168-.945c-.555-.21-1.173-.181-1.706.079a2.99 2.99 0 0 0-1.312 1.418 5.04 5.04 0 0 0 2.4 6.09 2.44 2.44 0 0 0 2.494-.158 4.79 4.79 0 0 0 1.641-2.271 10 10 0 0 0 .577-2.953 11.04 11.04 0 0 0-1.483-6.09 41.62 41.62 0 0 0-3.937-5.25 15.83 15.83 0 0 1-3.019-5.25 7.61 7.61 0 0 1 .394-5.486 4.41 4.41 0 0 1 4.098-2.389 3.57 3.57 0 0 1 2.034.682 2.89 2.89 0 0 1 1.063 1.575c.225 1.012.006 2.073-.6 2.914a2.31 2.31 0 0 1-1.549 1.05 1.24 1.24 0 0 1-.5 0h0c.156.023.316.023.472 0a2.36 2.36 0 0 0 1.444-1.063 3.49 3.49 0 0 0 .5-2.756 2.52 2.52 0 0 0-1-1.417c-.546-.384-1.196-.594-1.864-.6a4.12 4.12 0 0 0-3.714 2.244 7.27 7.27 0 0 0-.328 5.25 15.42 15.42 0 0 0 2.966 5.145 41.9 41.9 0 0 1 3.937 5.25 11.46 11.46 0 0 1 1.431 6.274 10.5 10.5 0 0 1-.617 3.084c-.339.981-.966 1.836-1.8 2.454-.429.289-.928.457-1.444.486-.495.011-.986-.097-1.431-.315a4.98 4.98 0 0 1-2.008-1.851 4.92 4.92 0 0 1-.512-4.712 3.27 3.27 0 0 1 1.5-1.536c.613-.254 1.303-.254 1.916 0a2.47 2.47 0 0 1 1.312 1.089 2.01 2.01 0 0 1 .184 1.312c-.125.647-.549 1.197-1.142 1.483-.203.099-.432.134-.656.1zm.406 15.487a2.1 2.1 0 0 0-.617.171 2.01 2.01 0 0 0-1.011 1.444c-.1.447-.029.915.2 1.312a2.26 2.26 0 0 0 2.874.866c.582-.314 1.043-.813 1.312-1.417a5.04 5.04 0 0 0-2.4-6.142 2.44 2.44 0 0 0-2.494.157 4.64 4.64 0 0 0-1.641 2.271c-.341.949-.536 1.945-.577 2.953a11.04 11.04 0 0 0 1.457 6.129 41.62 41.62 0 0 0 3.872 5.184 15.75 15.75 0 0 1 3.019 5.25 7.61 7.61 0 0 1-.394 5.486 4.33 4.33 0 0 1-1.759 1.837 4.51 4.51 0 0 1-2.271.591 3.57 3.57 0 0 1-2.034-.683c-.524-.393-.899-.953-1.063-1.588a3.66 3.66 0 0 1 .6-2.914c.35-.546.911-.921 1.549-1.037a1.64 1.64 0 0 1 .5 0h0c-.161-.03-.325-.03-.486 0-.597.155-1.11.536-1.431 1.063a3.49 3.49 0 0 0-.5 2.756 2.52 2.52 0 0 0 1.024 1.614 3.19 3.19 0 0 0 1.864.591 4.11 4.11 0 0 0 3.714-2.284 7.27 7.27 0 0 0 .328-5.25 15.64 15.64 0 0 0-2.966-5.145 41.9 41.9 0 0 1-3.937-5.25 11.5 11.5 0 0 1-1.5-6.366 10.66 10.66 0 0 1 .617-3.084 5.25 5.25 0 0 1 1.877-2.467 2.99 2.99 0 0 1 1.444-.473c.495-.011.986.097 1.431.315a4.99 4.99 0 0 1 1.942 1.851 4.92 4.92 0 0 1 .512 4.712c-.317.663-.844 1.203-1.5 1.536a2.44 2.44 0 0 1-1.916 0 2.39 2.39 0 0 1-1.312-1.076 2.01 2.01 0 0 1-.184-1.312c.126-.651.548-1.205 1.142-1.5a1.15 1.15 0 0 1 .709-.1z"/><circle cx="120.932" cy="76.518" r="1.326"/><path d="M56.726 187.04a2.55 2.55 0 0 0-.184-.617 2.01 2.01 0 0 0-1.444-1.011c-.447-.104-.917-.033-1.312.2a2.2 2.2 0 0 0-.958 1.168 2.17 2.17 0 0 0 .092 1.706 2.94 2.94 0 0 0 1.417 1.312c2.341.802 4.919-.209 6.09-2.389.411-.801.351-1.764-.158-2.507a4.68 4.68 0 0 0-2.152-1.6 10.01 10.01 0 0 0-2.953-.591 11.12 11.12 0 0 0-6.234 1.457 42 42 0 0 0-5.184 3.937 15.62 15.62 0 0 1-5.25 3.019c-1.813.565-3.772.424-5.486-.394a4.41 4.41 0 0 1-1.851-1.746 4.52 4.52 0 0 1-.6-2.284 3.49 3.49 0 0 1 .683-2.021c.382-.53.941-.907 1.575-1.063 1.011-.234 2.074-.019 2.914.591a2.31 2.31 0 0 1 1.05 1.562 1.18 1.18 0 0 1 0 .486 1.46 1.46 0 0 1 0 .171v-.171a2.32 2.32 0 0 0 0-.472 2.36 2.36 0 0 0-1.063-1.444c-.811-.538-1.808-.719-2.756-.5-.577.16-1.082.513-1.431 1a3.32 3.32 0 0 0-.591 1.877 4.1 4.1 0 0 0 2.244 3.636 7.14 7.14 0 0 0 5.25.328 15.2 15.2 0 0 0 5.145-2.966 40.57 40.57 0 0 1 5.25-3.937 11.47 11.47 0 0 1 6.352-1.509 10.5 10.5 0 0 1 3.084.617 5.08 5.08 0 0 1 2.454 1.811c.288.424.456.919.486 1.431a3.15 3.15 0 0 1-.315 1.444 5.04 5.04 0 0 1-1.851 2 4.88 4.88 0 0 1-4.712.512 3.27 3.27 0 0 1-1.536-1.5c-.254-.608-.254-1.292 0-1.9a2.27 2.27 0 0 1 1.089-1.312 1.94 1.94 0 0 1 1.312-.2c.644.131 1.192.552 1.483 1.142.098.23.116.486.051.727zm37.248-.34c.034.22-.001.444-.1.643a2.06 2.06 0 0 1-1.492 1.142c-.471.106-.964.04-1.391-.184a2.35 2.35 0 0 1-1.076-1.312 2.41 2.41 0 0 1 0-1.9 3.15 3.15 0 0 1 1.536-1.5c1.552-.672 3.342-.488 4.725.486.798.48 1.445 1.176 1.864 2.008a2.95 2.95 0 0 1 .3 1.431 2.86 2.86 0 0 1-.472 1.444 5.04 5.04 0 0 1-2.454 1.8 10.5 10.5 0 0 1-3.084.63c-2.223.122-4.434-.402-6.366-1.509a40.5 40.5 0 0 1-5.25-3.937 15.75 15.75 0 0 0-5.158-2.966 7.21 7.21 0 0 0-5.25.341 4.1 4.1 0 0 0-2.284 3.7 3.36 3.36 0 0 0 .591 1.877c.352.481.856.828 1.431.984a3.44 3.44 0 0 0 2.756-.5 2.3 2.3 0 0 0 1.05-1.431 1.85 1.85 0 0 0 0-.486q0-.157 0-.157a1.48 1.48 0 0 1 0 .157 1.31 1.31 0 0 1 0 .5c-.124.641-.503 1.205-1.05 1.562a3.65 3.65 0 0 1-2.914.591c-.634-.156-1.193-.533-1.575-1.063a3.55 3.55 0 0 1-.682-2.021 4.52 4.52 0 0 1 .577-2.284c.431-.755 1.075-1.367 1.851-1.759a7.6 7.6 0 0 1 5.486-.394c1.927.662 3.709 1.687 5.25 3.019a40.21 40.21 0 0 0 5.171 3.872c1.859 1.069 3.987 1.579 6.129 1.47a10.5 10.5 0 0 0 2.966-.591c.907-.303 1.699-.875 2.271-1.641.495-.743.556-1.694.158-2.494a4.59 4.59 0 0 0-1.706-1.864 4.54 4.54 0 0 0-4.384-.525 2.89 2.89 0 0 0-1.417 1.312 2.15 2.15 0 0 0-.092 1.706c.168.489.509.899.958 1.155a1.8 1.8 0 0 0 1.312.21c.607-.107 1.136-.477 1.444-1.011a3.96 3.96 0 0 0 .371-.511zm-29.204-1.562a1.312 1.312 0 1 0 0 2.624 1.31 1.31 0 1 0 0-2.624zm42.197 0a1.312 1.312 0 1 0 0 2.624 1.31 1.31 0 1 0 0-2.624z"/><circle cx="24.675" cy="186.477" r="1.339"/><path d="M56.725 36.67a2.73 2.73 0 0 0-.184-.617 2.05 2.05 0 0 0-1.443-1.011 1.72 1.72 0 0 0-1.312.21c-.449.256-.79.666-.958 1.155a2.15 2.15 0 0 0 .092 1.706 2.94 2.94 0 0 0 1.417 1.312c2.351.864 4.979-.138 6.156-2.349.409-.802.348-1.763-.158-2.507a4.69 4.69 0 0 0-2.218-1.641 10.01 10.01 0 0 0-2.953-.591 11.13 11.13 0 0 0-6.234 1.47c-1.834 1.167-3.568 2.483-5.185 3.935a15.83 15.83 0 0 1-5.25 3.019c-1.815.561-3.774.415-5.486-.407a4.33 4.33 0 0 1-1.855-1.741 4.52 4.52 0 0 1-.6-2.349 3.55 3.55 0 0 1 .682-2.021c.382-.53.941-.907 1.575-1.063a3.64 3.64 0 0 1 2.914.591 2.31 2.31 0 0 1 1.05 1.562 1.31 1.31 0 0 1 0 .5 1.48 1.48 0 0 1 0 .157v-.171a2.39 2.39 0 0 0 0-.472 2.35 2.35 0 0 0-1.063-1.431 3.44 3.44 0 0 0-2.756-.5 2.62 2.62 0 0 0-1.483 1.037 3.32 3.32 0 0 0-.591 1.877 4.08 4.08 0 0 0 2.3 3.649 7.21 7.21 0 0 0 5.25.341 15.64 15.64 0 0 0 5.145-2.966 40.66 40.66 0 0 1 5.25-3.937 11.47 11.47 0 0 1 6.352-1.509 10.08 10.08 0 0 1 3.084.63c.986.329 1.844.958 2.454 1.8.289.429.457.928.486 1.444a3.12 3.12 0 0 1-.315 1.431 4.98 4.98 0 0 1-1.851 2.008 4.88 4.88 0 0 1-4.712.5c-.669-.309-1.211-.839-1.536-1.5-.254-.608-.254-1.292 0-1.9a2.27 2.27 0 0 1 1.089-1.312c.4-.22.867-.285 1.312-.184.644.122 1.194.541 1.483 1.129.096.226.114.478.052.716zm37.248-.393c.034.224-.001.453-.1.656a2.09 2.09 0 0 1-1.488 1.128 1.9 1.9 0 0 1-1.391-.184 2.3 2.3 0 0 1-1.076-1.316 2.41 2.41 0 0 1 0-1.9 3.27 3.27 0 0 1 1.536-1.5 4.88 4.88 0 0 1 4.7.5c.829.503 1.499 1.231 1.929 2.1a2.98 2.98 0 0 1 .3 1.444 2.85 2.85 0 0 1-.473 1.431 5.04 5.04 0 0 1-2.454 1.8 10.08 10.08 0 0 1-3.084.578c-2.223.122-4.434-.402-6.366-1.509-1.854-1.168-3.61-2.485-5.25-3.937a15.25 15.25 0 0 0-5.158-2.966 7.14 7.14 0 0 0-5.25.328 4.11 4.11 0 0 0-2.284 3.7 3.32 3.32 0 0 0 .591 1.877c.349.487.854.84 1.431 1 .948.219 1.945.038 2.756-.5a2.29 2.29 0 0 0 1.049-1.446 1.81 1.81 0 0 0 0-.473v-.171c.003.057.003.114 0 .171a1.18 1.18 0 0 1 0 .486 2.35 2.35 0 0 1-1.05 1.562 3.65 3.65 0 0 1-2.914.591c-.634-.157-1.192-.535-1.574-1.066a3.55 3.55 0 0 1-.682-2.021 4.52 4.52 0 0 1 .735-2.192 4.33 4.33 0 0 1 1.851-1.746 7.47 7.47 0 0 1 5.486-.394 15.75 15.75 0 0 1 5.25 3.019 42.8 42.8 0 0 0 5.171 3.872 11.15 11.15 0 0 0 6.127 1.462c1.013-.047 2.013-.246 2.966-.591a4.75 4.75 0 0 0 2.323-1.68 2.52 2.52 0 0 0 .158-2.507 4.68 4.68 0 0 0-1.706-1.864 4.58 4.58 0 0 0-4.384-.525 2.94 2.94 0 0 0-1.417 1.312 2.15 2.15 0 0 0-.092 1.706c.172.49.511.904.958 1.168.395.233.865.304 1.312.2a2.01 2.01 0 0 0 1.444-1.011 3.62 3.62 0 0 0 .12-.592zM64.77 34.768a1.31 1.31 0 1 0 1.312 1.312 1.31 1.31 0 0 0-1.312-1.312zm42.197 0a1.31 1.31 0 1 0 1.312 1.312 1.31 1.31 0 0 0-1.312-1.312z"/><circle cx="24.675" cy="36.107" r="1.339"/><path d="M112.322 178.038v-37l-.092-95.588.2.2H19.359l.21-.223v132.56l-.171-.184 67.711.092h-.092l-67.816.092h-.17V45.044h93.488v.2l-.105 95.719v36.251a6.82 6.82 0 0 0-.092.824z"/><path d="M131.235 26.866a29.83 29.83 0 0 0-3.412 1.89 37.46 37.46 0 0 0-6.864 6.444l-5.972 7.35-1.89 2.192a4.75 4.75 0 0 1-.774.709c.187-.299.407-.577.656-.827l1.759-2.257 5.906-7.455a34.19 34.19 0 0 1 7.035-6.4 11.25 11.25 0 0 1 1.431-.827l.6-.3.538-.2c.315-.142.645-.248.984-.315zm.446 170.439a6.22 6.22 0 0 1-.722-.8l-1.877-2.218-6.484-7.035-7.061-6.471-2.231-1.864c-.289-.21-.553-.452-.787-.722.318.165.617.363.893.591l2.323 1.759a88.9 88.9 0 0 1 7.166 6.4 89.9 89.9 0 0 1 6.418 7.14l1.772 2.323a4.16 4.16 0 0 1 .59.897zM0 197.055c.139-.325.315-.634.525-.919l1.641-2.389a58.43 58.43 0 0 1 13.637-13.269l2.428-1.575c.292-.199.605-.367.932-.5-.259.24-.54.455-.84.643l-2.349 1.68a69.75 69.75 0 0 0-13.558 13.2l-1.746 2.3c-.192.299-.417.576-.669.827zM.368 26.866a4.96 4.96 0 0 1 .774.7l2.048 1.98 6.864 6.4 6.786 6.562 1.956 2.074a5.25 5.25 0 0 1 .669.814 5.76 5.76 0 0 1-.787-.7l-2.047-1.982-6.864-6.4-6.786-6.562-1.956-2.074a5.03 5.03 0 0 1-.657-.812z"/><path d="M126.09 30.778c.118 0 .21 35.988.21 80.376l-.21 80.376c-.118 0-.223-35.975-.223-80.376l.223-80.376zm-1.851-.368c0 .118-26.88.21-60.007.21s-60.007-.1-60.007-.21 26.853-.223 60.007-.223l60.007.223z"/><path d="M4.594 188.945c-.118 0-.21-35.437-.21-79.077l.21-79.09c.118 0 .21 35.437.21 79.09l-.21 79.077zm121.496 3.005c0 .118-26.538.223-59.272.223s-59.258-.105-59.258-.223 26.525-.21 59.258-.21l59.272.21zm-10.107-10.998v-10.2l-.079-28.533-.171-100.273.184.2-100.68-.354.223-.223v.157l.407 139.5-.171-.171 72.961-.118h20.33l-20.2.105-73.144.407h-.184v-.184l-.486-139.5v-.369h.21l100.68.407h.2v138.545a1.53 1.53 0 0 1-.08.604z"/><use xlink:href="#B" opacity=".2"/><path d="M23.507 181.214c-.131 0-.249-.709-.223-1.562s.105-1.536.223-1.549.249.709.21 1.562a3.94 3.94 0 0 1-.21 1.549zm-3.269.039c-.131 0-.249-.7-.223-1.562s.105-1.523.223-1.536.249.7.21 1.549a3.94 3.94 0 0 1-.21 1.549zm6.97-.183c-.118 0-.236-.656-.262-1.483s0-1.5.157-1.509.236.669.263 1.5-.04 1.492-.158 1.492zm3.347 0c-.118 0-.249-.656-.276-1.483s0-1.5.171-1.509.236.669.262 1.5.013 1.492-.157 1.492z"/><use xlink:href="#C"/><path d="M37.393 181.07c-.118 0-.236-.656-.276-1.483s0-1.5.171-1.509.236.669.262 1.5-.036 1.492-.157 1.492zm3.386 0c-.118 0-.236-.656-.262-1.483s0-1.5.157-1.509.249.669.276 1.5-.053 1.492-.171 1.492z"/><use xlink:href="#D"/><path d="M47.617 181.07c-.131 0-.249-.656-.276-1.483s0-1.5.171-1.509.236.669.262 1.5c.061.503.007 1.013-.157 1.492z"/><use xlink:href="#D" x="6.786"/><use xlink:href="#E"/><use xlink:href="#C" x="23.756"/><use xlink:href="#D" x="16.971"/><path d="M64.535 181.07c-.118 0-.236-.656-.262-1.483s0-1.5.158-1.509.249.669.276 1.5-.027 1.492-.172 1.492z"/><use xlink:href="#D" x="23.756"/><use xlink:href="#F"/><use xlink:href="#G"/><use xlink:href="#E" x="23.756"/><use xlink:href="#C" x="47.511"/><use xlink:href="#D" x="40.727"/><path d="M88.304 181.07c-.118 0-.236-.656-.262-1.483s0-1.5.171-1.509.236.669.262 1.5-.053 1.492-.171 1.492z"/><use xlink:href="#H"/><use xlink:href="#F" x="23.755"/><use xlink:href="#G" x="23.756"/><use xlink:href="#E" x="47.512"/><path d="M105.261 181.07c-.118 0-.236-.656-.262-1.483s0-1.5.158-1.509.249.669.276 1.5c.075.504.016 1.019-.172 1.492z"/><use xlink:href="#H" x="16.971"/><path d="M112.06 181.07c-.131 0-.249-.656-.276-1.483s0-1.5.171-1.509.236.669.262 1.5-.039 1.492-.157 1.492z"/><use xlink:href="#I"/><use xlink:href="#J"/><use xlink:href="#J" y="-3.714"/><use xlink:href="#K"/><use xlink:href="#L"/><path d="M115.866 158.246a3.94 3.94 0 0 1-1.785.21 4.03 4.03 0 0 1-1.8-.21 4.03 4.03 0 0 1 1.8-.21 3.94 3.94 0 0 1 1.785.21z"/><use xlink:href="#M"/><use xlink:href="#J" y="-22.666"/><path d="M115.866 146.906c-.569.214-1.181.291-1.785.223a3.94 3.94 0 0 1-1.8-.223 4.03 4.03 0 0 1 1.8-.21c.603-.069 1.214.003 1.785.21z"/><use xlink:href="#K" y="-22.667"/><use xlink:href="#L" y="-22.667"/><path d="M115.866 135.579a3.94 3.94 0 0 1-1.785.21 4.03 4.03 0 0 1-1.8-.21 4.03 4.03 0 0 1 1.8-.21c.603-.069 1.214.003 1.785.21z"/><use xlink:href="#M" y="-22.671"/><use xlink:href="#N"/><use xlink:href="#J" y="-49.113"/><path d="M115.866 120.472a3.94 3.94 0 0 1-1.785.21 4.03 4.03 0 0 1-1.8-.21c0-.131.814-.223 1.8-.223s1.785.092 1.785.223z"/><use xlink:href="#L" y="-45.333"/><use xlink:href="#L" y="-49.113"/><use xlink:href="#M" y="-45.337"/><use xlink:href="#N" y="-22.693"/><use xlink:href="#N" y="-26.442"/><path d="M115.866 97.793c0 .131-.8.223-1.785.223s-1.8-.092-1.8-.223a4.03 4.03 0 0 1 1.8-.21c.603-.069 1.214.003 1.785.21z"/><use xlink:href="#L" y="-68"/><use xlink:href="#K" y="-75.56"/><use xlink:href="#M" y="-68.004"/><use xlink:href="#I" y="-94.446"/><use xlink:href="#N" y="-49.113"/><use xlink:href="#J" y="-98.213"/><use xlink:href="#L" y="-90.666"/><use xlink:href="#K" y="-98.225"/><use xlink:href="#I" y="-113.332"/><use xlink:href="#I" y="-117.112"/><use xlink:href="#N" y="-71.779"/><use xlink:href="#N" y="-75.559"/><use xlink:href="#L" y="-113.333"/><use xlink:href="#K" y="-120.853"/><path d="M111.784 45.451a3.77 3.77 0 0 1-.223-1.772 3.81 3.81 0 0 1 .223-1.772c.205.567.277 1.173.21 1.772a3.94 3.94 0 0 1-.21 1.772zm-3.609 0c-.202-.581-.265-1.201-.184-1.811-.067-.599.005-1.205.21-1.772.131 0 .223.8.223 1.772s-.118 1.811-.249 1.811zm-3.596 0a3.94 3.94 0 0 1-.21-1.772 3.94 3.94 0 0 1 .21-1.772 3.81 3.81 0 0 1 .223 1.772 3.77 3.77 0 0 1-.223 1.772zm-3.596 0a3.93 3.93 0 0 1-.21-1.811c-.067-.599.005-1.205.21-1.772a3.94 3.94 0 0 1 .21 1.772 3.93 3.93 0 0 1-.21 1.811zm-3.597 0c-.222-.576-.298-1.198-.223-1.811a3.81 3.81 0 0 1 .223-1.772 3.94 3.94 0 0 1 .21 1.772 3.93 3.93 0 0 1-.21 1.811zm-3.596 0a3.77 3.77 0 0 1-.236-1.811 3.81 3.81 0 0 1 .223-1.772A3.94 3.94 0 0 1 94 43.64a3.94 3.94 0 0 1-.21 1.811z"/><use xlink:href="#O"/><use xlink:href="#P"/><path d="M83.054 45.451a5.83 5.83 0 0 1 0-3.544 3.94 3.94 0 0 1 .144 1.732 3.93 3.93 0 0 1-.144 1.812zm-3.662 0a3.77 3.77 0 0 1-.276-1.811 3.81 3.81 0 0 1 .223-1.772 3.94 3.94 0 0 1 .263 1.772 3.93 3.93 0 0 1-.21 1.811zm-3.609 0a3.93 3.93 0 0 1-.21-1.811c-.067-.599.005-1.205.21-1.772a3.81 3.81 0 0 1 .223 1.772c.075.613-.001 1.235-.223 1.811z"/><use xlink:href="#O" x="-17.994"/><path d="M68.616 45.451a3.94 3.94 0 0 1-.236-1.811 3.94 3.94 0 0 1 .236-1.732c.19.556.253 1.148.184 1.732.081.61.018 1.23-.184 1.811z"/><use xlink:href="#Q"/><path d="M61.398 45.451c-.131 0-.223-.787-.223-1.772s.092-1.772.223-1.772a3.94 3.94 0 0 1 .21 1.732c.073.612.001 1.233-.21 1.812z"/><use xlink:href="#R"/><path d="M54.179 45.451a3.94 3.94 0 0 1-.2-1.811c-.064-.585.005-1.177.2-1.732a3.94 3.94 0 0 1 .223 1.732 3.93 3.93 0 0 1-.223 1.811zm-3.583 0c-.222-.576-.298-1.198-.223-1.811a3.81 3.81 0 0 1 .223-1.772c.205.567.277 1.173.21 1.772a3.94 3.94 0 0 1-.21 1.811z"/><use xlink:href="#Q" x="-17.994"/><path d="M43.391 45.451a3.94 3.94 0 0 1-.21-1.811c-.067-.599.005-1.205.21-1.772.236.559.335 1.167.289 1.772.054.618-.045 1.24-.289 1.811zm-3.65 0a3.94 3.94 0 0 1-.157-1.811 3.94 3.94 0 0 1 .157-1.732 3.8 3.8 0 0 1 .276 1.732 3.77 3.77 0 0 1-.276 1.811zm-3.542 0a3.94 3.94 0 0 1-.21-1.811c-.067-.599.005-1.205.21-1.772.205.567.277 1.173.21 1.772a3.93 3.93 0 0 1-.21 1.811z"/><use xlink:href="#Q" x="-32.392"/><path d="M28.993 45.451c-.211-.579-.283-1.199-.21-1.811-.067-.599.005-1.205.21-1.772.223.562.308 1.17.249 1.772.067.615-.019 1.237-.249 1.811z"/><use xlink:href="#R" x="-32.392"/><use xlink:href="#P" x="-64.784"/><use xlink:href="#S"/><use xlink:href="#T"/><path d="M19.202 55.715a4.91 4.91 0 0 1-2.034.223 4.91 4.91 0 0 1-2.034-.223 5.04 5.04 0 0 1 2.033-.266 5.04 5.04 0 0 1 2.034.262z"/><use xlink:href="#B" y="9.029"/><path d="M19.202 61.739a5.04 5.04 0 0 1-2.034.276 5.04 5.04 0 0 1-2.034-.21 4.91 4.91 0 0 1 2.034-.223 4.91 4.91 0 0 1 2.034.157z"/><use xlink:href="#T" y="12.035"/><use xlink:href="#U"/><use xlink:href="#B" y="21.065"/><use xlink:href="#T" y="21.118"/><use xlink:href="#U" y="9.03"/><path d="M19.202 79.789a4.66 4.66 0 0 1-2.034.223 4.66 4.66 0 0 1-2.035-.223 5.04 5.04 0 0 1 2.034-.21 5.04 5.04 0 0 1 2.034.21z"/><use xlink:href="#B" y="33.101"/><path d="M19.202 85.81a5.04 5.04 0 0 1-2.034.21 5.04 5.04 0 0 1-2.034-.21 5.04 5.04 0 0 1 2.034-.171 5.04 5.04 0 0 1 2.034.171z"/><use xlink:href="#U" y="21.065"/><use xlink:href="#B" y="42.13"/><use xlink:href="#B" y="45.123"/><use xlink:href="#T" y="45.136"/><use xlink:href="#U" y="33.101"/><use xlink:href="#B" y="54.166"/><path d="M19.202 106.875a5.04 5.04 0 0 1-2.034.21 5.04 5.04 0 0 1-2.034-.21 5.04 5.04 0 0 1 2.033-.241 5.04 5.04 0 0 1 2.034.236z"/><use xlink:href="#U" y="42.131"/><use xlink:href="#S" y="66.201"/><use xlink:href="#B" y="66.201"/><use xlink:href="#T" y="66.201"/><use xlink:href="#U" y="54.17"/><path d="M19.202 124.936a5.04 5.04 0 0 1-2.034.21 5.04 5.04 0 0 1-2.035-.21 4.91 4.91 0 0 1 2.034-.223 4.91 4.91 0 0 1 2.035.223z"/><use xlink:href="#B" y="78.236"/><use xlink:href="#T" y="78.237"/><use xlink:href="#U" y="66.202"/><use xlink:href="#B" y="87.266"/><use xlink:href="#T" y="87.267"/><use xlink:href="#U" y="75.231"/><use xlink:href="#S" y="99.328"/><use xlink:href="#B" y="99.302"/><use xlink:href="#T" y="99.302"/><use xlink:href="#U" y="87.267"/><path d="M19.202 158.036a5.04 5.04 0 0 1-2.034.21 5.04 5.04 0 0 1-2.034-.21 4.91 4.91 0 0 1 2.034-.21 4.91 4.91 0 0 1 2.034.21z"/><use xlink:href="#V"/><use xlink:href="#T" y="111.342"/><use xlink:href="#U" y="99.263"/><use xlink:href="#V" y="9.03"/><use xlink:href="#T" y="120.368"/><use xlink:href="#U" y="108.332"/></g><path d="M19.333 45.464h92.451v132.652H19.333z" class="F"/><path d="M19.136 60.335c15.75 18.68 34.124 38.285 49.218 57.473l-49.152 13.125z" class="H"/><path d="M19.28 128.73v49.375l92.976-.709-.328-68.7q-46.464 9.414-92.674 20.034" class="I"/><path d="M181.792.026h92.95v96.9h-92.95z" class="C"/><path d="M175.492.026h92.95v96.9h-92.95z" class="E"/><path d="M268.48 96.95h-93.015V0h93.015z" class="H"/><path d="M187.986 13.046h67.96v70.848h-67.96z" class="F"/><g class="C"><path d="M188.052 84.327a11.26 11.26 0 0 1-1.68 1.956l-4.318 4.371-4.436 4.252a11.5 11.5 0 0 1-1.969 1.641 10.5 10.5 0 0 1 1.667-1.942l4.331-4.384 4.449-4.266a10.5 10.5 0 0 1 1.956-1.628zm67.895-.131a10.72 10.72 0 0 1 1.956 1.68l4.384 4.318 4.239 4.436a9.68 9.68 0 0 1 1.641 1.969 11.81 11.81 0 0 1-1.942-1.667l-4.384-4.331-4.266-4.449a10.5 10.5 0 0 1-1.628-1.956zm-.184-70.953a10.72 10.72 0 0 1 1.68-1.956l4.318-4.384 4.436-4.239a10.58 10.58 0 0 1 1.969-1.641c-.474.709-1.034 1.357-1.667 1.929l-4.331 4.384-4.449 4.266a11.21 11.21 0 0 1-1.956 1.641zm-67.96.21a11.26 11.26 0 0 1-1.956-1.68l-4.371-4.318-4.252-4.436c-.615-.597-1.164-1.257-1.64-1.969a10.5 10.5 0 0 1 1.969 1.627l4.384 4.331 4.266 4.449a10.5 10.5 0 0 1 1.6 1.995z"/><path d="M255.763 83.894v-5.163l-.079-14.437-.131-51.187.263.262h-67.777l.3-.3v70.874l-.262-.249 49.074.131h.21l-49.244.131h-.262V12.521h68.236v.262l-.131 51.423-.066 14.437v4.725c.002.183-.043.364-.131.525z"/></g><path d="M209.432 67.671c-5.134-5.5-5.42-13.945-.669-19.779 1.89-2.166 4.41-3.741 6.156-6.024 3.793-4.948 3.741-12.731 9-16.039 3.859-2.415 9.371-1.037 12.18 2.533a12.89 12.89 0 0 1 1.221 12.915c-1.312 3.071-3.688 5.683-4.646 8.9s-.42 6.891-1.444 10.159c-1.221 3.937-5.407 6.457-9.292 7.875a17.4 17.4 0 0 1-12.508-.551" class="H"/><g class="C"><path d="M228.555 35.03c-.166.643-.386 1.271-.656 1.877l-2.113 4.974c-2.454 5.428-5.26 10.689-8.4 15.75s-6.596 9.913-10.355 14.529c-1.444 1.759-2.625 3.163-3.517 4.095-.424.516-.889.996-1.392 1.435a13.13 13.13 0 0 1 1.207-1.588 168.22 168.22 0 0 0 3.36-4.213c3.667-4.677 7.084-9.544 10.237-14.582a168.77 168.77 0 0 0 8.518-15.592l2.284-4.9c.229-.615.506-1.212.827-1.785z"/><path d="M214.499 47.315a22.31 22.31 0 0 1 .538 3.583l.945 8.872-.446-.236 1.457-.853 8.741-5a30.7 30.7 0 0 1 3.714-1.916c-1.105.852-2.272 1.621-3.491 2.3l-8.649 5.145-1.47.853-.407.236v-.472l-.748-8.885a22.19 22.19 0 0 1-.184-3.622zm17.849-5.25a10.75 10.75 0 0 1-2.3 1.312l-5.7 2.7-.709.328-.367.157v-.394l-.827-5.736a10.33 10.33 0 0 1-.171-2.376 9.16 9.16 0 0 1 .577 2.31l1.024 5.709-.433-.236.7-.315 5.788-2.546a12.44 12.44 0 0 1 2.418-.913z"/></g><g class="G"><path d="M372.416 523.259h13.558v64.01h-13.558zm115.236 0h13.558v64.01h-13.558zm-137.679-80.468h171.095v15.829H349.973z"/><path d="M514.256 524.06l-153.862.341V458.62h153.862z"/></g><g class="C"><path d="M521.068 458.62c0 .171-38.3.315-85.534.315s-85.56-.144-85.56-.315 38.3-.3 85.56-.3l85.534.3zm-7.377 65.781c0 .171-34.2.3-76.36.3s-76.373-.131-76.373-.3 34.124-.315 76.373-.315l76.36.315zm-12.127-13.335v-11.353l-.1-31.329.2.21-128.479.1h0l.315-.315v42.682l-.3-.3 91.874.144 26.853.079h.039l-26.788.079-92.11.144h-.289v-43.282h.341l128.479.1h.144v.2l-.118 31.5v10.53c.001.272-.02.543-.061.811z"/><path d="M378.165 505.475a10.69 10.69 0 0 1-2.231 2.835 10.57 10.57 0 0 1-2.625 2.428 11.08 11.08 0 0 1 2.231-2.848 10.59 10.59 0 0 1 2.625-2.415zm-.001-31.487a12.11 12.11 0 0 1-2.769-2.625 11.61 11.61 0 0 1-2.31-3.006c1.059.719 1.994 1.606 2.769 2.625a11.62 11.62 0 0 1 2.31 3.006zm123.636-5.472a11.08 11.08 0 0 1-2.809 2.966 17.13 17.13 0 0 1-3.2 2.507 11.08 11.08 0 0 1 2.809-2.966 17.13 17.13 0 0 1 3.2-2.507zm-.236 42.551a13.13 13.13 0 0 1-3.1-2.625 13.6 13.6 0 0 1-2.625-3.019 13.94 13.94 0 0 1 3.1 2.625 13.6 13.6 0 0 1 2.625 3.019z"/><path d="M495.789 505.475v-8.334l-.1-23.152.184.184-117.618.118h0l.315-.3v31.5l-.3-.3 83.933.131 24.7.092h.013l-24.556.223-84.143.144h-.3v-32.1h.315l117.611.118h.2v.2l-.1 23.257v7.7a.8.8 0 0 1-.154.519zm-47.158-18.676c-.975-.631-2.036-1.117-3.15-1.444a10.09 10.09 0 0 0-3.124-.486h-8.662a9.95 9.95 0 0 0-6.891 2.625c-.407.386-.756.828-1.037 1.313a3.53 3.53 0 0 0 .341 4.226c1.1 1.037 3.386.538 3.57-.984a3.77 3.77 0 0 0 3.94 3.54c2.034-.253 3.714-1.71 4.252-3.688 0 1.77 1.364 3.242 3.129 3.376s3.336-1.114 3.604-2.864c1.063 1.391 2.625 2.691 4.462 2.1a3.23 3.23 0 0 0 2.074-2.323 5.16 5.16 0 0 0-2.508-5.391z"/></g><path d="M435.245 484.83a17.14 17.14 0 0 0-3.557 3.255 17.61 17.61 0 0 0-2.008 4.423c-.079 0-.131-.564 0-1.47a8.3 8.3 0 0 1 1.457-3.268 8.57 8.57 0 0 1 2.625-2.4c.892-.488 1.457-.606 1.483-.54zm3.307.367a19.47 19.47 0 0 1-.709 6.812 9.77 9.77 0 0 1 0-3.439c.041-1.157.281-2.298.709-3.373zm4.121-.105c0-.066.5.118 1.011.682a5.54 5.54 0 0 1 1.221 2.625 9.63 9.63 0 0 1 0 2.888c-.105.735-.223 1.168-.3 1.168s-.118-.459-.131-1.181a18.55 18.55 0 0 0-.184-2.756 6.71 6.71 0 0 0-.958-2.507c-.318-.551-.659-.84-.659-.919zm-58.195 59.718h105.431v12.35H384.478z" class="G"/><path d="M463.397 426.765v15.868h-68.38a7.94 7.94 0 0 1-7.94-7.954h0c0-4.387 3.553-7.946 7.94-7.954" class="C"/><path d="M440.271 430.1h23.126v9.187h-23.126a4 4 0 0 1-4-4v-1.221a4 4 0 0 1 4-3.966zm23.126-19.228v15.894h-68.38a7.94 7.94 0 0 1-7.94-7.94h0a7.94 7.94 0 0 1 7.94-7.954z" class="G"/><path d="M440.271 414.205h23.126v9.187h-23.126a4 4 0 0 1-4-4v-1.227a4 4 0 0 1 4-3.96z" class="H"/><path d="M414.021 385.357l-10.867 25.515h7l4.817-13.624z" class="C"/><path d="M447.359 362.284l4.2 48.588h-35.49l-3.9-48.588z" class="H"/><path d="M443.894 366.129l3.675 40.7-26.643.354-3.6-41.291z" class="I"/><path d="M438.236 371.773l2.1 28.008h-14.213l-2.507-28.008z" class="C"/><path d="M576.546 587.977c0 .184-123.373.341-275.621.341s-275.62-.157-275.62-.341 123.373-.341 275.621-.341l275.62.341z" class="B"/><use xlink:href="#W" class="E"/><use xlink:href="#W" opacity=".3"/><path d="M510.791 481.575s-39.164-46.816-38.718-91.637h15.828s-17.193-11.3-15.828-17.627 1.811-30.292 1.811-30.292l14.437 3.609s-10.841-5.421-12.206-14 3.163-48.378 3.163-48.378 17.64 18.532 23.06 37.524 19.687 41.133 15.487 99-7.034 61.801-7.034 61.801zm19.814 4.37s42.432-28.271 51.869-64.312l-12.718-3.465s16.288-5.316 16.577-10.71 5.171-24.74 5.171-24.74l-12.429-.263s9.922-1.982 12.889-8.6 8.032-39.584 8.032-39.584-18.23 11.051-26.748 25.121-24.806 28.783-34.124 76.216-8.519 50.337-8.519 50.337z" class="E"/><path d="M490.014 324.117a3.39 3.39 0 0 1 .131.5l.341 1.444 1.234 5.552 1.864 8.833 2.3 11.72c1.68 8.689 3.439 19.083 5.25 30.646s3.531 24.32 5.092 37.734 2.73 26.25 3.649 37.918 1.523 22.194 1.877 31.04l.433 11.944.21 9.017v5.7 1.483a2.9 2.9 0 0 1 0 .5c-.014-.166-.014-.334 0-.5a13.37 13.37 0 0 0-.066-1.483c0-1.312-.1-3.255-.2-5.7l-.315-9-.538-11.93c-.42-8.846-1.116-19.359-2.021-31.014s-2.166-24.465-3.688-37.891-3.321-26.145-5.04-37.708a860.62 860.62 0 0 0-5.119-30.66l-2.2-11.734-1.732-8.846-1.116-5.591-.276-1.457a2.79 2.79 0 0 1-.066-.512z" class="B"/><path d="M505.357 510.279s-35.844-40.687-46.974-65.256l8.4-3.583c-6.09 1-12.324-1.614-17.062-5.591s-8.19-9.187-11.589-14.358l11.064-1.864c-10.164-2.909-18.82-9.615-24.176-18.73 13.059 2.139 24.871 9.319 34.61 18.283 7.875 7.258 14.569 15.75 21 24.307a82.49 82.49 0 0 1 8.151 13.387c6.01 12.456 16.602 38.469 16.576 53.405z" class="E"/><path d="M583.108 357.965a2.5 2.5 0 0 1-.171.407l-.551 1.181-2.192 4.515-7.94 16.629-11.2 24.937c-4.086 9.45-8.374 19.91-12.665 30.975s-8.111 21.722-11.471 31.5l-8.492 25.987-5.25 17.64-1.417 4.817-.381 1.234c-.032.147-.084.288-.157.42a1.86 1.86 0 0 1 .079-.433c.092-.315.2-.735.328-1.312l1.312-4.843c1.129-4.213 2.861-10.264 5.106-17.719s5.053-16.288 8.361-26.04 7.153-20.4 11.419-31.5 8.636-21.538 12.731-30.988 7.967-17.863 11.34-24.937l8.137-16.537 2.31-4.449.6-1.155a.6.6 0 0 1 .164-.329zm-74.706 169.743a3.19 3.19 0 0 1-.171-.748l-.341-2.153-.551-3.412-.84-4.5c-.643-3.334-1.562-7.258-2.73-11.589s-2.7-9.017-4.515-13.86-3.832-9.345-5.775-13.374-3.937-7.586-5.6-10.5c-.827-1.483-1.654-2.769-2.349-3.937s-1.312-2.126-1.837-2.927-.853-1.312-1.168-1.851a3.28 3.28 0 0 1-.367-.669 4.23 4.23 0 0 1 .486.591l1.313 1.785c.551.774 1.221 1.732 1.942 2.874s1.588 2.415 2.441 3.937c1.772 2.9 3.741 6.444 5.749 10.5s4 8.57 5.854 13.427 3.294 9.594 4.476 13.925 2.021 8.321 2.625 11.668c.341 1.667.538 3.189.735 4.528s.354 2.494.446 3.439l.223 2.179c.009.223-.006.447-.046.667z" class="B"/><path d="M477.244 518.14h78.447v15.999h-78.447zm7.481 16.013l8.479 53.825h47.407l7.914-53.825z" class="D"/><path d="M550.886 534.152c0 .184-14.844.341-33.14.341s-33.153-.158-33.153-.341 14.844-.341 33.153-.341l33.14.341zM174.927 126.221c1.312-6.392 5.814-9.8 11.812-12.324a20.4 20.4 0 0 1 18.729 1.785c3.649 2.415 6.562 6.064 10.828 7.219 6.93 1.916 14.542-3.688 21.236-1.076a9.28 9.28 0 0 1-3.216 17.915c4.541 1.312 6.326 7.547 4 11.655s-7.534 5.946-12.219 5.394-8.912-3.1-12.613-6.024-7.087-6.261-11.025-8.872-8.61-4.476-13.3-3.937c-6.339.761-11.5 5.919-13.952 11.812s-2.625 12.455-2.625 18.847.381 12.862-1.1 19.083c-.071.758-.5 1.436-1.155 1.824-1.011.381-1.969-.656-2.546-1.575a93.83 93.83 0 0 1-12.994-34.124c-1.181-7.009-1.444-13.7 2.047-19.884s12.994-11.222 18.047-7.8" class="B"/><path d="M164.519 156.579l1.312 65.243c.249 12.18 6.366 24.78 25.606 23.507h0c16.616-2.362 17.062-14.017 16.97-28.468h0s18.2-2.087 19.149-20.16c.446-8.741-.079-26.8-.735-43.141-.718-17.555-14.797-31.616-32.353-32.313h-1.746c-18.832.289-29.069 16.498-28.203 35.332z" class="J"/><path d="M208.434 216.888a43.76 43.76 0 0 1-23.27-7.875c0 0 5.132 14.254 23.244 13.348z" class="K"/><path d="M220.443 171.724c-.063 1.403-1.22 2.508-2.625 2.507-.664.028-1.312-.214-1.794-.672a2.46 2.46 0 0 1-.765-1.756c.063-1.403 1.22-2.508 2.625-2.507.663-.025 1.309.219 1.79.676a2.47 2.47 0 0 1 .769 1.752zm2.166-9.449c-.328.328-2.231-1.207-5.014-1.312s-4.869 1.207-5.158.853c-.144-.158.21-.748 1.116-1.312a7.06 7.06 0 0 1 4.147-1.1 6.85 6.85 0 0 1 3.937 1.457c.867.653 1.13 1.27.972 1.414zm-27.916 8.321c-.063 1.403-1.22 2.508-2.625 2.507a2.47 2.47 0 0 1-2.625-2.428c.063-1.403 1.22-2.508 2.625-2.507a2.47 2.47 0 0 1 2.625 2.428zm.577-8.833c-.328.328-2.231-1.194-5.014-1.312s-4.869 1.207-5.158.853.21-.748 1.129-1.312c1.231-.785 2.675-1.169 4.134-1.1a6.85 6.85 0 0 1 3.937 1.457c.867.587 1.131 1.204.972 1.414zm9.267 21a18.72 18.72 0 0 1 4.541-.63c.709 0 1.391-.158 1.536-.643a3.61 3.61 0 0 0-.394-2.113l-1.89-5.486c-2.625-7.875-4.462-14.227-4.147-14.332s2.691 6.142 5.25 13.965l1.785 5.512a4.08 4.08 0 0 1 .263 2.8c-.227.502-.672.871-1.207 1a5.25 5.25 0 0 1-1.221.118 17.77 17.77 0 0 1-4.516-.191zm-8.111-31.92c-.3.735-3.071.276-6.339.538s-5.959 1.037-6.352.354c-.184-.341.3-1.037 1.391-1.719a10.59 10.59 0 0 1 4.764-1.457 10.71 10.71 0 0 1 4.909.774c1.128.539 1.758 1.156 1.627 1.51zm25.488 3.347c-.525.617-2.4-.118-4.712-.236s-4.266.249-4.686-.433c-.184-.328.144-.945 1.024-1.509a6.43 6.43 0 0 1 3.859-.879 6.56 6.56 0 0 1 3.714 1.417c.788.682 1.064 1.338.801 1.64z" class="B"/><path d="M165.464 170.032c-.3-.144-12.285-4.174-12.377 8.216s12.35 9.922 12.377 9.568 0-17.784 0-17.784z" class="J"/><path d="M161.71 183.095a3.05 3.05 0 0 1-.577.315 2.22 2.22 0 0 1-1.614 0c-1.312-.5-2.389-2.625-2.428-4.817a7.09 7.09 0 0 1 .63-3.084c.243-.779.85-1.391 1.627-1.641a1.1 1.1 0 0 1 1.312.6c.158.354.079.591.144.617s.276-.21.171-.722a1.31 1.31 0 0 0-.486-.788c-.341-.26-.769-.377-1.194-.328-1.035.198-1.894.916-2.271 1.9a7.31 7.31 0 0 0-.774 3.452c.066 2.494 1.312 4.83 3.111 5.368a2.3 2.3 0 0 0 1.969-.315c.35-.257.472-.535.38-.557z" class="K"/><path d="M227.74 136.721c-1.625-3.574-4.115-6.686-7.245-9.056-6.518-5.417-14.578-8.641-23.034-9.214a32.81 32.81 0 0 0-23.349 7.77c-4.997 4.57-8.551 10.5-10.224 17.062-1.63 6.558-1.943 13.375-.919 20.055.407 2.927 1.076 5.972 3.032 8.19 1.221 1.391 3.386 2.349 4.882 1.312a4.88 4.88 0 0 0 1.562-2.8c2.756-9.45 5.512-19.608 2.389-28.94 2.394-3.079 5.402-5.627 8.833-7.481a14.62 14.62 0 0 1 11.287-1.089c5.447 1.916 8.623 7.416 12.875 11.314a26.13 26.13 0 0 0 22.995 6.1z" class="B"/><path d="M205.901 190.454a12.35 12.35 0 0 1-1.312 3.229 4.16 4.16 0 0 1-2.835 1.9 3.74 3.74 0 0 1-3.255-1.509c-.731-1.027-1.121-2.257-1.116-3.517 0-1.129.407-2.507 1.522-2.7.47-.055.946.017 1.378.21l6.037 1.995" class="K"/><path d="M203.867 195.454c-1.056.141-2.13.078-3.163-.184a4.49 4.49 0 0 1-2.507-1.995 4.74 4.74 0 0 1-.328-3.846 4.16 4.16 0 0 1 .446-.906c.223-.262.171-.249.433-.236.333.073.659.178.971.315l.984.328 3.452 1.089a11.18 11.18 0 0 0 3.268.761 10.58 10.58 0 0 0-3.019-1.457l-3.373-1.312-.984-.354c-.354-.118-.63-.262-1.1-.381a1.31 1.31 0 0 0-.866.092c-.25.127-.463.317-.617.551a5.05 5.05 0 0 0-.591 1.155 5.54 5.54 0 0 0 .486 4.7 5.04 5.04 0 0 0 3.15 2.218c.844.206 1.727.183 2.559-.066.576-.197.825-.419.799-.472z" class="B"/><path d="M241.234 124.883a3.74 3.74 0 0 1 .131.827 8.66 8.66 0 0 1-.262 2.415 11.35 11.35 0 0 1-5.46 6.838c-3.321 1.956-8.19 2.244-12.954.814s-9.437-4.436-14.293-7.3-9.949-5.027-14.818-4.83a19.45 19.45 0 0 0-11.71 4.674 25.8 25.8 0 0 0-5.644 6.562c-1.05 1.785-1.483 2.861-1.549 2.822.054-.273.142-.537.263-.787a20.67 20.67 0 0 1 1.011-2.192 24.83 24.83 0 0 1 5.552-6.877 19.79 19.79 0 0 1 12.062-4.974c5.079-.249 10.355 2.008 15.225 4.869s9.424 5.919 14.109 7.284 9.279 1.194 12.469-.6a11.22 11.22 0 0 0 5.434-6.431 12.31 12.31 0 0 0 .434-3.114zm-85.023 25.764c.099-1.15.425-2.27.958-3.294a21 21 0 0 1 4.712-6.8c1.103-1.063 2.318-2.005 3.622-2.809a7.65 7.65 0 0 1 3.583-1.312c.879-.062 1.755.163 2.494.643.512.354.669.669.63.7a4.74 4.74 0 0 0-3.084-.774c-1.969.21-4.41 1.969-6.681 4.095a24.5 24.5 0 0 0-4.764 6.471l-1.47 3.08zm1.746 10.972a9.19 9.19 0 0 1 1.155-3.242 22.9 22.9 0 0 1 5.066-6.562 23.27 23.27 0 0 1 7.114-4.371 9.45 9.45 0 0 1 3.347-.814 33.05 33.05 0 0 1-3.137 1.312 27.56 27.56 0 0 0-6.786 4.449c-2.007 1.829-3.728 3.948-5.106 6.287l-1.653 2.941z" class="E"/><path d="M249.004 340.392l65.847 26.525-10.5 18.808-74.667-11.458z" class="J"/><path d="M249.131 263.756c.341 18.519-.263 63.143-.263 63.143l10.5 16.59-18.467 24.937-21.341 3.006-2.113 16.55s-37.393 16.734-67.3 6.562c-23.27-7.875-50.465 18.65-50.465 18.65s-2.494-4.331 1.549-41.763l10.5-94.577 21.512-53.812 32.5-5.631c13.532 22.995 40.582 23.126 42.761 9.187l21.485 8.938a30.54 30.54 0 0 1 19.215 28.258z" class="D"/><path d="M230.51 269.387c.184 0-2.087 21.275-5.066 47.459l-5.749 47.381c-.184-.026 2.074-21.262 5.066-47.459l5.749-47.381zm-10.657 47.971c.105.157-10.5 7.127-23.625 15.566l-23.926 14.988c-.145-.223 10.5-7.127 23.625-15.566l23.926-14.988zM182.09 587.974h-12.413l-7.087-83.43h19.5zm-96.661 0h-12.4l-7.09-83.43h19.49zm233.792 0h-12.4l-7.09-83.43h19.49z" class="B"/><path d="M119.448 430.192l11.813-180.886H19.7c-4.033.003-7.856 1.798-10.435 4.899s-3.646 7.187-2.913 11.153l44.9 242.3h274.505v-77.44z" class="E"/><path d="M284.924 480.997c0 .2-24.727.341-55.216.341s-55.216-.144-55.216-.341 24.714-.341 55.216-.341l55.216.341z" class="B"/><path d="M383.703 523.089l8.019 38.3s41.632 4.7 43.8 11.629l-73.7 18.23-14.96-59.159z" class="D"/><path d="M368.151 563.828a3.11 3.11 0 0 0-1.234 3.938c.747 1.424 2.486 2.004 3.938 1.312a3.28 3.28 0 0 0 1.312-4.2c-.941-1.37-2.799-1.747-4.2-.853m-5.802 28.796l-1.457-5.736 70.979-17.062s3.635.617 3.832 3.019z" class="C"/><path d="M392.798 560.757c.079.354-1.68.971-3.163 2.559s-2.047 3.347-2.415 3.281-.341-2.271 1.483-4.174 4.095-2.06 4.095-1.666zm8.558 1.234c.157.328-1.247 1.313-2.087 3.15s-.8 3.531-1.168 3.6-1.089-1.9 0-4.147 3.15-2.945 3.255-2.603zm6.667 8.177c-.3.144-1.312-1.523-.814-3.727s1.929-3.4 2.152-3.137-.551 1.575-.879 3.386-.105 3.347-.459 3.478zm-17.994-17.981c-.066.367-1.837.276-3.846.919s-3.426 1.68-3.688 1.417.945-1.929 3.307-2.625 4.371-.039 4.227.289z" class="B"/><path d="M383.703 523.089l8.019 38.3s41.632 4.7 43.8 11.629l-73.36 19.803-15.3-60.732z" opacity=".3"/><path d="M344.538 407.617l46.659 135.435-40.293 14.9-74.234-148.458L153.297 390.2l74.129-19.923 105.576 26.683a16.51 16.51 0 0 1 11.536 10.657z" class="B"/><path d="M382.417 508.048l26.644 29.26s38.679-17.233 44.112-12.324l-54.862 53.693-43.377-43.894z" class="D"/><path d="M389.754 551.57a3.14 3.14 0 0 0 .958 4.069c1.374.823 3.151.424 4.042-.906a3.31 3.31 0 0 0-1.024-4.3c-1.391-.682-3.649-.066-4.108 1.4m9.739 28.034l-4.2-4.252 53.1-51.3s3.478-1.312 4.9.669z" class="C"/><path d="M409.664 536.148c.263.289-.958 1.719-1.431 3.872s-.079 3.938-.433 4.095-1.47-1.8-.84-4.4 2.533-3.895 2.704-3.567zm8.072-3.242c.315.2-.407 1.785-.21 3.806s1.116 3.491.84 3.741-1.942-1.1-2.139-3.622 1.272-4.174 1.509-3.925zm10.027 3.688c-.184.289-1.864-.682-2.625-2.822s0-3.937.263-3.832.328 1.654.958 3.4 1.654 2.966 1.404 3.254zm-24.91-6.431c.131.354-1.457 1.181-2.874 2.769s-2.126 3.216-2.494 3.124-.157-2.166 1.536-4 3.766-2.234 3.832-1.893zm-262.798-82.909l107.545-.446 119.356 111.14 37.1-34.558-113.057-126.169c-11.707-11.799-124.524-19.686-124.524-19.686l-67.829 29.491 1.549 7.691c3.788 18.987 20.499 32.627 39.86 32.536z" class="B"/><g class="E"><path d="M245.092 432.672c.607 2.142.994 4.341 1.155 6.562.388 2.191.547 4.417.473 6.641a33.69 33.69 0 0 1-1.155-6.562 33.1 33.1 0 0 1-.473-6.641zM391.67 509.57a13.12 13.12 0 0 1-1.313 1.562l-3.846 4.056a423.03 423.03 0 0 1-13.125 12.994c-5.25 4.975-10.04 9.358-13.6 12.482l-4.239 3.649a12.28 12.28 0 0 1-1.614 1.313 10.93 10.93 0 0 1 1.444-1.457l4.095-3.806 13.44-12.613 13.23-12.849 4-3.937a10.58 10.58 0 0 1 1.528-1.394z"/><path d="M327.464 521.173l.709.617 2.047 1.864 7.875 7.245 29.032 26.88h-.328l37.051-34.61v.433c-15.632-18.244-34.361-38.206-53.982-59.442q-13.013-14.057-25.226-27.47c-8.164-8.925-15.75-17.613-22.85-26.171a70.73 70.73 0 0 0-11.14-11.564c-2.012-1.56-4.218-2.853-6.562-3.846-2.301-.942-4.682-1.676-7.114-2.192-4.791-1.024-9.515-1.627-14.03-2.362l-12.984-2.02-39.164-6.129-10.646-1.708-2.756-.459c-.63-.105-.945-.184-.945-.184a5.63 5.63 0 0 1 .945.118l2.782.394 10.657 1.575 39.2 5.919 12.994 1.969c4.5.722 9.187 1.313 14.057 2.336 2.468.514 4.884 1.251 7.219 2.2 2.418 1.006 4.692 2.33 6.759 3.938 4.187 3.437 7.965 7.343 11.261 11.642 7.048 8.518 14.779 17.193 22.863 26.118l25.147 27.431 53.956 59.495.2.223-.223.21-37.143 34.505-.171.144-.158-.144-28.875-27.05-7.783-7.323-2.008-1.916c-.472-.446-.666-.666-.666-.666z"/></g><path d="M233.07 361.26l-32.445 10.933-59.731-24.294-31.893 29.649 85.206 15.29c2.879.473 5.828.262 8.61-.617l25.121-7.875s8.2 9.279 9.922 9.411 5.171-.092 3.517-3.163a80.08 80.08 0 0 0-5.867-8.387c0 0 11.537 9.516 12.849 8.242s.788-4.226-1.312-6.628l-8.833-10.185s14.214 11.812 15.566 9.988 2.021-4.607-3.675-10.067c-3.741-3.583-9.489-8.7-12.521-11.366-1.233-1.091-2.951-1.445-4.515-.932z" class="J"/><path d="M199.746 372.495a23.01 23.01 0 0 1-3.1 3.833 23.14 23.14 0 0 1-3.347 3.57c.72-1.494 1.692-2.852 2.874-4.016a14.92 14.92 0 0 1 3.57-3.386zm47.853 11.943a12.81 12.81 0 0 1-2.73-2.8l-5.985-7.271c-2.336-2.822-4.4-5.775-7-5.25a5.54 5.54 0 0 0-2.625.787 8.72 8.72 0 0 1-.866.578 2.53 2.53 0 0 1 .722-.8 5.38 5.38 0 0 1 2.717-1.05 5.88 5.88 0 0 1 2.047.171 3.28 3.28 0 0 1 1.089.512l.906.788a44.62 44.62 0 0 1 3.517 3.859l5.827 7.4 1.759 2.2c.412.561.661.837.622.876zm-23.021-8.321a2.4 2.4 0 0 1 .761-.682c.794-.468 1.703-.704 2.625-.682a5.09 5.09 0 0 1 1.929.381c.686.34 1.277.845 1.719 1.47a22.51 22.51 0 0 1 1.313 1.982c.42.669 1 1.312 1.509 2.021 4.226 5.552 7.363 10.3 7.087 10.5 0 0-.249-.276-.63-.787l-1.614-2.152-5.289-7.153c-.512-.709-1.037-1.313-1.522-2.061s-.853-1.378-1.312-1.969a4.22 4.22 0 0 0-1.457-1.312 5.13 5.13 0 0 0-1.706-.407 5.95 5.95 0 0 0-3.413.851zm26.395-1.735a17.06 17.06 0 0 1-2.625-2.087l-6.024-5.381-3.268-3.019a10.2 10.2 0 0 0-2.8-2.152 5.87 5.87 0 0 0-3.176-.459 1.93 1.93 0 0 1 .866-.315 4.91 4.91 0 0 1 2.494.328 7.22 7.22 0 0 1 1.536.853 14.87 14.87 0 0 1 1.5 1.312l3.307 2.979 5.893 5.539a15.16 15.16 0 0 1 2.3 2.4z" class="K"/><path d="M105.982 378.322s-12.127-13.624-11.366-31.788 5.972-70.743 8.295-85.167 13.125-34.124 30.45-38.4c12.692-3.084 15.317 35.148 15.317 35.148l-9.542 84.406 19.031 11.051-17.758 30.082z" class="D"/><path d="M146.971 253.899c-.131 0-.289-1.837-1.089-4.712a33.24 33.24 0 0 0-1.8-4.909 38.17 38.17 0 0 0-3.229-5.512 36.46 36.46 0 0 0-4.226-4.777 32.43 32.43 0 0 0-4.095-3.255l-4.147-2.507a5.14 5.14 0 0 1 1.234.433 10.82 10.82 0 0 1 1.4.669 18.5 18.5 0 0 1 1.772 1 29.1 29.1 0 0 1 4.252 3.189 33.06 33.06 0 0 1 4.357 4.856 33.44 33.44 0 0 1 3.242 5.644 28.81 28.81 0 0 1 1.706 5.04c.168.662.3 1.332.394 2.008a11.3 11.3 0 0 1 .2 1.522c.075.434.084.877.026 1.313zm-7.94 88.685a25.02 25.02 0 0 1-3.006 1.746 71.08 71.08 0 0 0-7.009 4.541c-2.225 1.678-4.355 3.479-6.379 5.394a24.52 24.52 0 0 1-2.625 2.336 14.57 14.57 0 0 1 2.231-2.691 51.07 51.07 0 0 1 6.313-5.591c2.26-1.683 4.667-3.159 7.192-4.41 1.03-.586 2.133-1.032 3.281-1.326z" class="B"/><path d="M265.029 323.342l-20.882 75.809h97.46l23.756-72.186a4.4 4.4 0 0 0-4.121-5.762l-91.952-1.05a4.37 4.37 0 0 0-4.261 3.189z" class="C"/><path d="M271.341 320.14c.184 0-4.541 17.771-10.565 39.6l-11.222 39.374c-.184-.092 4.554-17.784 10.5-39.6l11.287-39.374z" class="B"/><path d="M309.01 358.452a4.12 4.12 0 0 0 7.703 2.908 4.12 4.12 0 0 0-1.994-5.336c-2.247-.885-4.788.196-5.709 2.428z" class="F"/><path d="M244.147 399.153H178.93a5.58 5.58 0 0 1 5.578-5.578h62.072z" class="C"/><path d="M94.616 346.586a3.73 3.73 0 0 1 0 .617v1.8c0 .761.092 1.746.2 2.9l.564 3.937c.718 3.539 1.818 6.989 3.281 10.29a51.19 51.19 0 0 0 7.442 12.088l-.158-.079 34.361 5.25-.328.158 13.952-23.52 3.937-6.628.131.472-19.031-11.064-.171-.1v-.21l4.318-47.761 1.312-13.794.381-3.675c.011-.317.045-.633.1-.945a2.29 2.29 0 0 1 0-.315c.017.104.017.211 0 .315v.958l-.262 3.688-1.116 13.807-4.069 47.774-.171-.3 19.044 11.038.289.171-.171.289-3.937 6.641-13.86 23.441-.118.2h-.21l-34.344-5.368h-.105v-.066c-5.367-6.561-9.016-14.356-10.618-22.68-.236-1.303-.403-2.617-.5-3.937a27.71 27.71 0 0 1-.131-2.914v-1.8c-.025-.225-.029-.452-.012-.678z" class="B"/><path d="M45.792 370.277s115.275 14.595 119.436 18.637c3.622 3.544 8.229 97.123 9.253 96.73l-107.624-4.082z" class="E"/><path d="M140.894 507.378c-.2 0-2.625-27-5.368-60.374l-4.672-60.374c.197 0 2.625 26.985 5.355 60.374l4.685 60.374zM23.112 249.306a2.14 2.14 0 0 1 .144.459l.315 1.312 1.168 5.119 4.2 18.873 13.571 62.33 3.832 17.771 1.824 8.452.446 2.061c.11.666.281 1.321.512 1.956.506 1.206 1.384 2.217 2.507 2.887a6.22 6.22 0 0 0 1.772.7c.6.144 1.312.2 1.929.289l3.859.512 7.376.958 13.243 1.759 19.149 2.625 5.25.735 1.312.2a1.95 1.95 0 0 1 .459.1h-.473l-1.312-.144-5.25-.6-19.188-2.376-13.243-1.667-7.389-.932-3.859-.486-1.982-.289a7 7 0 0 1-1.956-.774 6.64 6.64 0 0 1-2.782-3.176 12.52 12.52 0 0 1-.564-2.074l-.446-2.061-1.837-8.439-3.846-17.771-13.374-62.369-3.937-18.913-1.05-5.158-.262-1.312-.118-.557zm143.796 147.05c.2 0 2.389 24.937 4.922 55.623l4.226 55.675c-.197.013-2.389-24.937-4.909-55.623l-4.239-55.675z" class="B"/><path d="M300.137 38.443h267.326v234.081H300.137z" class="F"/><path d="M300.78 145.843h266.67v126.681H300.78z" class="G"/><g class="B"><path d="M517.891 116.377c0 .184-36.592.341-81.7.341s-81.715-.158-81.715-.341 36.579-.341 81.715-.341l81.7.341zm48.024-52.603c0 .184-59.206.341-132.232.341s-132.246-.162-132.246-.341 59.193-.341 132.245-.341l132.233.341z"/><circle cx="314.601" cy="50.623" r="4.056"/><circle cx="328.172" cy="50.623" r="4.056"/><path d="M345.798 50.623c0 1.64-.988 3.119-2.504 3.747s-3.26.281-4.42-.879-1.507-2.905-.879-4.42 2.107-2.504 3.747-2.504c2.24 0 4.056 1.816 4.056 4.056z"/></g><circle cx="10.67" cy="10.67" r="10.67" transform="matrix(.707107 -.707107 .707107 .707107 328.282 115.651)" class="D"/><path d="M345.168 110.301v10.329h-2.389v-8.413h-2.06v-1.916z" class="F"/><path d="M450.823 116.011a28.36 28.36 0 0 0-.617-3.767 15.45 15.45 0 0 0-5.657-8.387c-4.139-3.114-9.573-3.919-14.437-2.139a14.44 14.44 0 0 0-3.846 2.074 14.23 14.23 0 0 0-3.216 3.242 15.12 15.12 0 0 0 0 17.955 14.23 14.23 0 0 0 3.216 3.242 14.44 14.44 0 0 0 3.846 2.074c4.053 1.474 8.539 1.176 12.361-.821s6.629-5.51 7.733-9.679a28.39 28.39 0 0 0 .617-3.754c.029.333.029.667 0 1 .003.4-.028.799-.092 1.194a10.7 10.7 0 0 1-.289 1.627 15.63 15.63 0 0 1-20.54 11.051 15.29 15.29 0 0 1-4.029-2.139 14.9 14.9 0 0 1-3.36-3.373 15.75 15.75 0 0 1 0-18.755c.936-1.29 2.07-2.424 3.36-3.36a15.29 15.29 0 0 1 4.029-2.139c4.191-1.522 8.833-1.184 12.76.928s6.767 5.799 7.807 10.136a10.83 10.83 0 0 1 .289 1.614 7.19 7.19 0 0 1 .092 1.207 5.79 5.79 0 0 1-.026.971z" class="D"/><path d="M539.205 115.656a20.8 20.8 0 0 0-.459-2.625 10.71 10.71 0 0 0-3.937-5.722 10.38 10.38 0 0 0-9.844-1.431 10.17 10.17 0 0 0-4.791 3.609c-1.915 2.628-2.487 6.001-1.545 9.113s3.287 5.603 6.336 6.729a10.42 10.42 0 0 0 9.844-1.444c1.908-1.415 3.292-3.423 3.937-5.709.433-1.627.381-2.625.459-2.625a2.23 2.23 0 0 1 0 .682 8.72 8.72 0 0 1-.249 1.956 10.79 10.79 0 0 1-8.439 8.111c-4.339.843-8.759-1.004-11.209-4.682s-2.45-8.469 0-12.147 6.87-5.525 11.209-4.682c4.168.809 7.472 3.99 8.439 8.124a8.53 8.53 0 0 1 .249 1.942 2.36 2.36 0 0 1 0 .802z" class="B"/><g class="D"><path d="M352.571 115.197h103.66v1.877h-103.66z"/><circle cx="10.67" cy="10.67" r="10.67" transform="matrix(.16057 -.987024 .987024 .16057 423.044 124.463)"/></g><path d="M439.326 118.688v1.942h-7.809v-1.549l3.937-3.767c.919-.866 1.076-1.4 1.076-1.9 0-.814-.551-1.312-1.654-1.312-.841-.029-1.641.359-2.139 1.037l-1.732-1.116c.954-1.29 2.493-2.015 4.095-1.929 2.31 0 3.846 1.181 3.846 3.058a4.15 4.15 0 0 1-1.732 3.268l-2.376 2.244z" class="F"/><path d="M532.59 117.467c0 1.746-1.312 3.347-4.279 3.347-1.393.021-2.762-.367-3.937-1.116l.932-1.824a5.04 5.04 0 0 0 2.953.932c1.194 0 1.929-.486 1.929-1.312s-.564-1.312-1.929-1.312h-1.089v-1.588l2.126-2.4h-4.4v-1.919h7.232v1.614l-2.336 2.625c1.571.081 2.802 1.38 2.8 2.953zM499.818 82.07c0 .184-25.961.341-57.972.341s-57.985-.158-57.985-.341 26-.368 57.985-.368l57.972.368z" class="B"/><path d="M428.17 147.378l8.019-10.88 8.006 10.88z" class="G"/><path d="M567.45 272.523l-.289-234.081.289.289h-267.3l.341-.341v234.081l-.3-.3 267.313.3-267.313.3h-.3V38.049h267.94v.341l-.381 234.133z" class="B"/><path d="M366.758 173.204c0 .184-8.164.341-18.217.341s-18.217-.158-18.217-.341 8.151-.354 18.217-.354 18.217.162 18.217.354z" class="D"/><path d="M404.164 202.607h-68.852c-5.154 0-9.332-4.178-9.332-9.332h0c0-5.154 4.178-9.332 9.332-9.332h68.853a9.33 9.33 0 0 1 9.345 9.332h0a9.33 9.33 0 0 1-9.345 9.332z" class="I"/><path d="M494.174 173.204c0 .184-7.731.341-17.259.341s-17.259-.158-17.259-.341 7.717-.354 17.259-.354 17.259.162 17.259.354zm-128.373 50.889c0 .184-7.731.341-17.259.341s-17.259-.158-17.259-.341 7.717-.341 17.259-.341 17.259.144 17.259.341z" class="D"/><path d="M529.218 202.607h-68.866c-5.154 0-9.332-4.178-9.332-9.332h0c0-5.154 4.178-9.332 9.332-9.332h68.866c5.154 0 9.332 4.178 9.332 9.332h0c0 5.154-4.178 9.332-9.332 9.332zm2.546 51.66h-195.94a9.33 9.33 0 0 1-9.345-9.332h0a9.33 9.33 0 0 1 9.345-9.332h195.94a9.33 9.33 0 0 1 9.345 9.332h0a9.33 9.33 0 0 1-9.345 9.332z" class="I"/><circle cx="19.398" cy="19.398" r="19.398" transform="matrix(.707107 -.707107 .707107 .707107 538.483 41.123)" class="D"/><g class="F"><path d="M571.156 32.986l2.747 2.747-12.325 12.325-2.747-2.747z"/><path d="M558.843 35.708l2.747-2.747 12.325 12.325-2.747 2.747z"/></g><defs ><path id="B" d="M19.202 49.704a5.04 5.04 0 0 1-2.034.21 5.04 5.04 0 0 1-2.034-.21 4.91 4.91 0 0 1 2.034-.223 4.91 4.91 0 0 1 2.034.223z"/><path id="C" d="M33.994 181.07c-.118 0-.236-.656-.262-1.483s0-1.5.157-1.509.236.669.276 1.5-.056 1.492-.171 1.492z"/><path id="D" d="M44.178 181.07c-.118 0-.236-.656-.262-1.483s0-1.5.157-1.509.236.669.262 1.5-.039 1.492-.157 1.492z"/><path id="E" d="M54.363 181.07c-.118 0-.236-.656-.276-1.483s0-1.5.171-1.509.236.669.262 1.5-.039 1.492-.157 1.492z"/><path id="F" d="M71.334 181.07c-.118 0-.249-.656-.276-1.483s0-1.5.171-1.509.236.669.262 1.5-.039 1.492-.157 1.492z"/><path id="G" d="M74.72 181.07c-.118 0-.236-.656-.262-1.483s0-1.5.158-1.509.236.669.276 1.5-.054 1.492-.172 1.492z"/><path id="H" d="M91.69 181.07c-.118 0-.236-.656-.262-1.483s0-1.5.158-1.509.236.669.262 1.5-.04 1.492-.158 1.492z"/><path id="I" d="M115.866 177.132c-.571.207-1.182.279-1.785.21a4.03 4.03 0 0 1-1.8-.21 4.03 4.03 0 0 1 1.8-.21 3.94 3.94 0 0 1 1.785.21z"/><path id="J" d="M115.866 173.352c-.569.214-1.181.291-1.785.223-.609.067-1.226-.01-1.8-.223a4.03 4.03 0 0 1 1.8-.21c.603-.069 1.214.003 1.785.21z"/><path id="K" d="M115.866 165.806c-.571.207-1.182.279-1.785.21a4.03 4.03 0 0 1-1.8-.21 3.94 3.94 0 0 1 1.8-.223c.604-.068 1.216.009 1.785.223z"/><path id="L" d="M115.866 162.026c-.571.207-1.182.279-1.785.21a4.03 4.03 0 0 1-1.8-.21c.574-.213 1.191-.29 1.8-.223.604-.068 1.216.009 1.785.223z"/><path id="M" d="M115.866 154.47c-.571.207-1.182.279-1.785.21a4.03 4.03 0 0 1-1.8-.21 4.03 4.03 0 0 1 1.8-.21c.603-.069 1.214.003 1.785.21z"/><path id="N" d="M115.866 128.019c-.569.214-1.181.291-1.785.223-.609.067-1.226-.01-1.8-.223a4.03 4.03 0 0 1 1.8-.21 3.94 3.94 0 0 1 1.785.21z"/><path id="O" d="M90.181 45.451a3.94 3.94 0 0 1-.21-1.811 3.94 3.94 0 0 1 .21-1.772c.214.565.29 1.172.223 1.772.075.613-.001 1.235-.223 1.811z"/><path id="P" d="M86.585 45.451c-.211-.579-.283-1.199-.21-1.811-.067-.599.005-1.205.21-1.772.205.567.277 1.173.21 1.772.073.612.001 1.232-.21 1.811z"/><path id="Q" d="M64.994 45.451c-.222-.576-.298-1.198-.223-1.811-.067-.6.009-1.207.223-1.772.205.567.277 1.173.21 1.772.073.612.001 1.232-.21 1.811z"/><path id="R" d="M57.789 45.451c-.211-.579-.283-1.199-.21-1.811a3.94 3.94 0 0 1 .21-1.772c.214.565.29 1.172.223 1.772.075.613-.001 1.235-.223 1.811z"/><path id="S" d="M19.202 46.685a4.66 4.66 0 0 1-2.034.223 4.66 4.66 0 0 1-2.034-.223 5.04 5.04 0 0 1 2.034-.21 5.04 5.04 0 0 1 2.034.21z"/><path id="T" d="M19.202 52.709a5.04 5.04 0 0 1-2.034.21 5.04 5.04 0 0 1-2.034-.21 5.04 5.04 0 0 1 2.034-.21 5.04 5.04 0 0 1 2.034.21z"/><path id="U" d="M19.202 67.75a4.91 4.91 0 0 1-2.034.223 4.91 4.91 0 0 1-2.034-.223 5.04 5.04 0 0 1 2.034-.21 5.04 5.04 0 0 1 2.034.21z"/><path id="V" d="M19.202 161.041a5.04 5.04 0 0 1-2.034.21 5.04 5.04 0 0 1-2.034-.21c.655-.216 1.348-.292 2.034-.223.686-.069 1.379.007 2.034.223z"/><path id="W" d="M573.711 290.386c-15.54 7.98-27.352 21.813-35.949 37.038s-14.057 31.946-19.517 48.562l-4.777 85.56c18.047-30.7 32.523-66.779 36.434-102.177l-12-1.076c8.046-1.221 14.8-7.061 19.11-13.978s6.562-14.9 8.662-22.745l-14.646 2.179c11.563-7.797 19.685-19.743 22.683-33.363z"/></defs></svg>