<svg xmlns="http://www.w3.org/2000/svg" width="1000" height="610" xmlns:v="https://vecta.io/nano"><style><![CDATA[.B{fill:#263238}.C{fill:#fff}.D{fill:#008ad8}.E{fill:#455a64}.F{fill:#efbda8}.G{opacity:.3}.H{fill:#e0e0e0}.I{fill:#f5f5f5}.J{fill:#d1967c}]]></style><defs><clipPath id="A"><path d="M0 0h1000v610H0z"/></clipPath></defs><g clip-path="url(#A)"><path d="M654.666 460.061l13.98 8.4-14.192 8.413-14.193 8.422.212-16.813.227-16.812z" class="H"/><path d="M104.881 543.756v65.38h201.07v-65.38z" class="I"/><g class="H"><path d="M96.439 525.47v18.286h216.537V525.47H96.439z"/><path d="M204.707 609.136h101.244v-65.38h7.025V525.47H200.487v16.586zm-71.711-54.842h40.778v9.844h-40.778z"/></g><path d="M127.755 576.446h52.364v20.778h-52.364z" class="C"/><path d="M135.815 460.175v65.38h201.07v-65.38z" class="I"/><g class="H"><path d="M127.373 441.889v18.286h216.54v-18.286h-216.54z"/><path d="M235.642 525.555h101.243v-65.38h7.025v-18.286H231.421v16.6zm-71.712-54.842h40.778v9.844H163.93z"/></g><path d="M158.689 492.865h52.364v20.778h-52.364z" class="C"/><rect width="259.071" height="160.562" rx="7.87" x="660.373" y="222.406" class="H"/><circle cx="789.902" cy="304.868" r="19.73" fill="#ebebeb"/><g class="C"><path d="M785.157 310.633v-11.639c.002-.261.141-.502.368-.633a.74.74 0 0 1 .732-.004l10.4 5.864c.235.129.381.376.381.644s-.146.515-.381.644l-10.41 5.779c-.229.126-.508.12-.732-.014a.74.74 0 0 1-.359-.638zm-109.968 53.893v.411h-1.955v-.326l1.048-1.006a.71.71 0 0 0 .3-.552c0-.241-.156-.368-.482-.368a.75.75 0 0 0-.623.269l-.34-.269a1.23 1.23 0 0 1 1.006-.439c.567 0 .935.3.935.765a1.05 1.05 0 0 1-.439.836l-.708.68z"/><path d="M675.444 363.209c0-.126.075-.24.192-.289a.31.31 0 0 1 .34.067c.089.089.116.223.068.34a.31.31 0 0 1-.288.193c-.172 0-.311-.139-.312-.311zm0 1.416c0-.172.14-.312.312-.312s.312.14.312.312-.14.312-.312.312c-.083 0-.162-.033-.221-.091a.31.31 0 0 1-.091-.221zm1.855-2.337v2.649h-.5v-2.238h-.552v-.411zm2.875 2.043h-.467v.609h-.453v-.609h-1.417v-.3l1.3-1.7h.524l-1.218 1.629h.807v-.538h.453v.538h.467zm4.32-1.122h200.645v1.062H684.494z"/></g><g fill="#ebebeb"><path d="M684.353 362.09h62.703v2.833h-62.703z"/><path d="M749.068 363.733a3.06 3.06 0 0 1-5.222 2.177 3.06 3.06 0 0 1 2.177-5.222 3.06 3.06 0 0 1 3.045 3.045z"/></g><g class="C"><path d="M890.196 363.705a.88.88 0 0 1-.963.864c-.722 0-1.147-.467-1.147-1.317a1.26 1.26 0 0 1 1.289-1.416 1.29 1.29 0 0 1 .694.17l-.17.382c-.154-.092-.331-.136-.51-.127-.5 0-.807.3-.807.906h0a.89.89 0 0 1 .708-.269.82.82 0 0 1 .907.807zm-.482 0c0-.283-.2-.453-.524-.453s-.538.184-.538.453.2.439.552.439c.123.016.247-.019.343-.096a.45.45 0 0 0 .167-.315zm.721-.906a.3.3 0 0 1 .311-.312c.165.009.294.146.294.312s-.129.302-.294.312a.3.3 0 0 1-.311-.312zm0 1.416c-.006-.113.05-.22.147-.279s.218-.058.315 0 .153.166.147.279a.31.31 0 0 1-.129.326c-.106.072-.245.072-.351 0a.31.31 0 0 1-.129-.326zm.937-1.006c0-.878.467-1.416 1.1-1.416s1.1.5 1.1 1.416-.482 1.416-1.1 1.416-1.1-.594-1.1-1.416zm1.714 0c0-.652-.255-.935-.609-.935s-.609.283-.609.935.241.921.609.921.651-.283.651-.921zm.821 0c0-.878.482-1.416 1.1-1.416s1.1.5 1.1 1.416-.468 1.416-1.1 1.416-1.1-.594-1.1-1.416zm1.714 0c0-.652-.241-.935-.609-.935s-.609.283-.609.935.255.921.609.921.609-.283.609-.921zm4.844-.165h-1.062v-2.71h2.705v1.062h-1.643zm1.643 3.507h-2.705v-2.705h1.062v1.643h1.643zm4.277 0h-2.705v-1.062h1.643v-1.643h1.062zm0-3.507h-1.062v-1.643h-1.643v-1.067h2.705zm-34.219-125.072c1.809-.226 3.631-.326 5.453-.3h.3v8.116l-.637-.637-.722-.722-1.856-1.855h.5l-2.833 2.55-.538.482v-.723l.17-5.127c-.013-.604.039-1.207.156-1.8a11.92 11.92 0 0 1 .156 2.011l.17 4.915-.538-.241 2.833-2.606.255-.227.241.241 1.87 1.841.723.736-.623.255.071-6.926.283.3a35.5 35.5 0 0 1-5.434-.283zm20.07.907l-1.317 1.686-3.881 4.617-.609.68v-4.688l.114.255-2.422-2.351-.623-.609h.864l5.835.241a15.32 15.32 0 0 1 2.054.156s-.963 0-2.38.127-3.314.17-5.51.17l.241-.595 2.45 2.323.113.1v3.938l-.623-.241 3.966-4.093 1.728-1.716z"/><path d="M892.236 238.879c.085.184-1.076.85-2.592 1.487a6.46 6.46 0 0 1-2.833.807c-.085-.2 1.077-.864 2.578-1.416s2.762-1.077 2.847-.878zm9.787-.907a1.94 1.94 0 0 1 .977 0 3.91 3.91 0 0 1 2.294 1.416 4.11 4.11 0 0 1 .666 3.938 4.25 4.25 0 0 1-7.889 0c-.459-1.349-.186-2.839.722-3.938a3.91 3.91 0 0 1 2.309-1.416 2.5 2.5 0 0 1 .977 0 8.75 8.75 0 0 1-.906.255 3.88 3.88 0 0 0-1.969 1.416c-.697.981-.861 2.244-.439 3.371a3.54 3.54 0 1 0 6.176-3.371 3.91 3.91 0 0 0-1.955-1.416 7.57 7.57 0 0 1-.963-.255zm1.317 5.553c-.156.142-1.006-.482-1.912-1.416l-.113-.113v-.156h0c0-1.3.17-2.351.368-2.351s.368 1.048.368 2.351h0l-.1-.255c.908.933 1.531 1.798 1.389 1.94zm-95.196-.256c0 .2-26.628.368-59.488.368s-59.488-.17-59.488-.368 26.614-.368 59.488-.368l59.488.368zm-124.499 0a4.7 4.7 0 1 1-4.688-4.688 4.7 4.7 0 0 1 4.688 4.688z"/></g><path d="M797.55 481.802c-.127.156-1.232-.51-2.464-1.416s-2.139-1.926-2-2.1 1.232.5 2.479 1.487 2.126 1.817 1.985 2.029z" class="B"/><path d="M831.218 431.478c.212-4.7.34-9.532-1.147-13.994s-4.929-8.569-9.532-9.518c-5.255-1.091-10.651 2.224-13.6 6.714s-3.952 9.915-4.83 15.24c-5.997 36.553-8.208 73.627-6.6 110.634l21.529 3.017c9.52-38.61 12.466-72.377 14.18-112.093z" class="E"/><g class="B"><path d="M817.549 407.796a.97.97 0 0 1-.1.34l-.354.977-1.416 3.711-1.02 2.691-1.048 3.258-1.2 3.753-1.119 4.249a190.11 190.11 0 0 0-4.15 21.246c-1.161 8.088-1.926 17-2.535 26.472-1.091 18.852-1.261 35.976-1.756 48.355l-.68 14.645-.269 3.98a3.66 3.66 0 0 1-.085 1.034 1.41 1.41 0 0 1 0 .354 1.79 1.79 0 0 1 0-.354v-1.034q0-1.416.127-3.994l.439-14.645c.34-12.379.425-29.5 1.53-48.384.609-9.433 1.416-18.413 2.592-26.529 1.017-7.195 2.464-14.323 4.334-21.345l1.175-4.249 1.261-3.739 1.119-3.258c.354-1.006.751-1.87 1.077-2.663l1.572-3.668.425-.949c.013-.112.067-.268.081-.254zm1.996.015c1.121 1.322 2.007 2.826 2.62 4.447 1.653 4.445 2.325 9.194 1.969 13.923-.566 11.9-1.643 28.328-3.045 46.372l-4.249 46.273-1.586 13.994-.5 3.8a5.52 5.52 0 0 1-.142.991 1.64 1.64 0 0 1 0 .34 1.43 1.43 0 0 1 0-.354v-.992l.354-3.81 1.416-14.022 4.037-46.273 3.286-46.33a33.9 33.9 0 0 0-1.7-13.8 29.32 29.32 0 0 0-2.46-4.559zm14.917 55.692a11.81 11.81 0 0 1-4.079-1.048 11.57 11.57 0 0 1-3.81-1.785c2.779.462 5.451 1.421 7.889 2.833zm2.591-21.926a13.1 13.1 0 0 1-3.881 2.153 12.75 12.75 0 0 1-4.249 1.416 13.17 13.17 0 0 1 3.881-2.167 12.99 12.99 0 0 1 4.249-1.402zm-1.345-17.903a13.7 13.7 0 0 1-6.36-.439c1.044-.303 2.144-.361 3.215-.17 1.082-.048 2.159.16 3.145.609zm-22.209-11.486c-.17.113-1.119-1.062-2.1-2.62a7.63 7.63 0 0 1-1.416-3.031c.184-.113 1.119 1.062 2.11 2.62s1.593 2.931 1.406 3.031zm-7.338 10.834a6.4 6.4 0 0 1-3.045.326 6.48 6.48 0 0 1-3.045-.453 6.43 6.43 0 0 1 3.059-.326c1.686.043 3.041.241 3.031.453zm-5.268 21.658a7.5 7.5 0 0 1-3.215-.878c-1.7-.68-3-1.416-2.932-1.6a7.32 7.32 0 0 1 3.215.892c1.685.679 3.017 1.387 2.932 1.586z"/><path d="M800.34 462.893c0 .212-1.19.651-2.748.977a5.81 5.81 0 0 1-2.833.212c0-.212 1.176-.637 2.734-.963a5.77 5.77 0 0 1 2.847-.227zm-2.492 29.802c0 .212-1.26.623-2.9.906s-3 .368-3.045.156 1.275-.609 2.918-.906 2.999-.368 3.027-.156zm-1.643 16.444c.1.184-.977.963-2.422 1.714s-2.677 1.232-2.833 1.048.977-.963 2.422-1.728 2.734-1.218 2.833-1.034zm13.427 18.668c-.184.113-1.119-1.2-2.11-2.918a8.7 8.7 0 0 1-1.416-3.3c.184-.1 1.133 1.2 2.11 2.918a8.5 8.5 0 0 1 1.416 3.3zm3.881-31.018c.156.156-.906 1.416-2.351 2.833s-2.748 2.45-2.833 2.295a10.33 10.33 0 0 1 2.351-2.833c1.445-1.417 2.692-2.451 2.833-2.295zm-.866-16.276c-.156.142-1.133-.666-2.181-1.8s-1.771-2.167-1.615-2.309 1.133.651 2.181 1.785 1.773 2.183 1.615 2.324zm2.68-20.806c.156.142-.722 1.416-1.969 2.833s-2.38 2.394-2.535 2.252.722-1.416 1.969-2.833 2.435-2.394 2.535-2.252zm1.486-15.084c-.142.142-1.416-.822-2.734-2.153s-2.337-2.549-2.2-2.705 1.416.821 2.733 2.153 2.357 2.549 2.201 2.705zm2.946-20.411c.184.113-.425 1.416-1.416 3.059s-1.841 2.833-2.026 2.663.425-1.416 1.416-3.059 1.856-2.776 2.026-2.663zm5.553-18.908a7.25 7.25 0 0 1-1.218 3.059c-.864 1.586-1.7 2.833-1.9 2.691a7.49 7.49 0 0 1 1.218-3.059c.864-1.587 1.73-2.79 1.9-2.691zm6.288 8.597c.085.184-.765.793-1.926 1.416s-2.167.836-2.252.651.765-.793 1.926-1.346 2.153-.919 2.252-.721zm.156 67.902c-1.48.022-2.941-.329-4.249-1.02a8.67 8.67 0 0 1-3.64-2.337q3.972 1.579 7.861 3.357zm-2.578 14.376c0 .212-1.261.637-2.833.949s-3 .411-3.045.2 1.261-.637 2.833-.949a6.54 6.54 0 0 1 3.046-.2zm-3.159 24.66a12.21 12.21 0 0 1-5.326-6.714c.981 1.038 1.867 2.162 2.649 3.357.988 1.039 1.884 2.162 2.677 3.357zm-34.592 11.288c-.142-.17.736-1.147 1.94-2.181s2.323-1.756 2.464-1.586-.736 1.133-1.955 2.167-2.317 1.756-2.449 1.6z"/></g><g class="E"><path d="M781.474 478.304c-1.416-4.377-4.023-9.476-8.612-9.546-2.782.149-5.26 1.806-6.459 4.32a15.82 15.82 0 0 0-1.742 7.918 206.46 206.46 0 0 0 9.914 57.321h16.813a199.18 199.18 0 0 0-9.914-60.013zm-30.382-27.534c-2.351-9.4-9.362-14.476-17.492-14.943-7.436 1.3-10.312 8.612-11.19 16.1s1.416 14.943 3.739 22.124q11.048 34.588 22.11 69.176l20.906-2.28c-6.614-30.887-10.41-59.527-18.073-90.177z"/></g><g class="B"><path d="M772.863 468.758c-.537.753-1.011 1.549-1.417 2.38a15.66 15.66 0 0 0-.779 7.422l1.218 11.26c.538 4.178 1.317 8.852 2.252 13.668 1.9 9.66 4.051 18.328 5.4 24.631l1.544 7.493.354 2.054a2.53 2.53 0 0 1 0 .722 3.61 3.61 0 0 1-.226-.694l-.5-2.011-1.77-7.436c-1.417-6.275-3.711-14.915-5.666-24.6-.949-4.844-1.686-9.49-2.2-13.739-.269-2.125-.453-4.136-.623-6.034l-.453-5.269c-.295-2.58.07-5.192 1.062-7.592.427-.874 1.042-1.643 1.8-2.252zm-38.965-33.526a28.43 28.43 0 0 0-2.521 3.385 23.89 23.89 0 0 0-3.187 10.949 50.65 50.65 0 0 0 2.592 16.827l5.963 20.212 10.694 36.826 3.159 11.161.822 3.059a5.32 5.32 0 0 1 .241 1.076 6.26 6.26 0 0 1-.383-1.034l-.963-3.017-3.4-11.09-10.906-36.713-5.906-20.24a49.89 49.89 0 0 1-2.451-17.067 23.41 23.41 0 0 1 3.47-11.062 12.75 12.75 0 0 1 2.776-3.272z"/><path d="M764.605 538.713c-.183-.317-.339-.648-.467-.991l-1.19-2.946c-.992-2.564-2.28-6.346-3.6-11.1s-2.635-10.467-3.9-16.855l-3.966-20.793a209.59 209.59 0 0 0-4.943-20.538 114.06 114.06 0 0 0-6.1-16.1 84.1 84.1 0 0 0-5.666-10.156c-.708-1.176-1.416-2.025-1.756-2.634-.224-.292-.418-.605-.581-.935.258.264.495.549.708.85.425.581 1.119 1.416 1.884 2.549a74.73 74.73 0 0 1 5.878 10.085 108.06 108.06 0 0 1 6.331 16.133 203.24 203.24 0 0 1 5.028 20.566l3.881 20.807c1.19 6.407 2.479 12.11 3.725 16.855s2.45 8.5 3.357 11.147c.425 1.3.821 2.295 1.048 2.989.146.344.256.701.329 1.067zM726.518 470.6c0 .213-1.091.666-2.535 1.02s-2.677.467-2.72.255 1.077-.652 2.535-1.006 2.678-.468 2.72-.269zm-2.209-14.264c-1.146.323-2.338.452-3.527.382a10.38 10.38 0 0 1-3.555-.113 7.5 7.5 0 0 1 3.527-.666 7.24 7.24 0 0 1 3.555.397zm2.351-12.988c-.141.156-1.275-.581-2.535-1.657s-2.181-2.068-2.039-2.224 1.275.567 2.535 1.643 2.181 2.026 2.039 2.238zm6.417-12.111c.212 0 .156 1.062.127 2.294s0 2.252-.255 2.28-.552-.992-.51-2.309.397-2.307.638-2.265zm12.988 5.68c.184.127-.326 1.161-1.133 2.309s-1.6 1.983-1.771 1.855.34-1.147 1.133-2.294 1.601-1.983 1.771-1.87zm8.456 14.702c.085.2-.991.822-2.408 1.416s-2.634.878-2.719.68 1.006-.821 2.422-1.416 2.634-.878 2.705-.68zm5.141 15.113a9.69 9.69 0 0 1-6.94 1.572 13.92 13.92 0 0 1 3.456-.878 13.58 13.58 0 0 1 3.484-.694zm-23.555-4.292c-.212-.071 0-1.1.326-2.337s.85-2.167 1.062-2.1 0 1.1-.34 2.323-.85 2.171-1.048 2.114zm3.286 18.98a7.2 7.2 0 0 1 .935-3.145c.722-1.657 1.416-2.918 1.657-2.833a7.09 7.09 0 0 1-.949 3.13c-.722 1.602-1.459 2.933-1.643 2.848zm-8.13 5.184c-1.034-.01-2.055-.232-3-.652-1.6-.51-2.9-.963-2.833-1.176s1.416-.071 3.073.439 2.845 1.205 2.76 1.389zm4.646 15.482c.128.17-.779 1.02-2 1.9s-2.323 1.416-2.451 1.275.765-1.02 2-1.9 2.366-1.445 2.451-1.275zm3.797 15.424c0 .212-1.062.652-2.479.991s-2.607.467-2.649.255 1.048-.651 2.465-.991 2.606-.468 2.663-.255zm20.366-37.888c.1.17-.85.935-2.224 1.416s-2.592.581-2.62.382 1.034-.609 2.351-1.1 2.409-.882 2.493-.698zm2.906 23.99c-.085.2-1.218-.142-2.521-.765s-2.281-1.261-2.2-1.416a5.15 5.15 0 0 1 2.521.751c1.306.612 2.3 1.249 2.2 1.43zm5.14 17.184a8.1 8.1 0 0 1-3.329-.892c-1.756-.694-3.13-1.416-3.045-1.615a8.2 8.2 0 0 1 3.328.892 8.06 8.06 0 0 1 3.046 1.615zm-27.592 13.455c-.1-.2 1.261-1.119 2.833-2.365s2.833-2.365 2.974-2.21-.85 1.516-2.493 2.833c-.923.874-2.07 1.477-3.314 1.742zm13.584-8.753c-.227 0-.524-1.133-1.048-2.465s-1.062-2.408-.892-2.535 1.063.807 1.615 2.252.537 2.748.325 2.748zm-3.613-20.637c-.113.17-.991-.255-1.954-.935s-1.629-1.416-1.5-1.558.991.241 1.955.935 1.627 1.387 1.499 1.558zm31.657-32.378c.128.184-.722 1.02-1.9 1.9s-2.238 1.416-2.366 1.261.722-1.02 1.9-1.884 2.239-1.447 2.366-1.277zm4.745 13.044c0 .213-1.317.5-2.974.312s-2.833-.737-2.833-.935 1.416 0 2.918.17 2.889.241 2.889.453zm-20.482 2.933c0 .2-1.19.637-2.833.751s-2.833-.17-2.833-.382 1.275-.283 2.833-.382 2.791-.199 2.833.013zm1.771-12.337c0 .213-1.275.241-2.635-.4s-2.167-1.6-2.025-1.742 1.091.482 2.337 1.048 2.352.895 2.323 1.094zm20.495 23.413c-.114.17-1.416-.425-2.833-1.345s-2.564-1.827-2.45-2 1.416.411 2.833 1.346 2.564 1.815 2.45 1.999z"/></g><g class="D"><path d="M729.323 536.135h109.402v19.39H729.323z"/><path d="M737.496 551.673l13.3 57.944h65.21l14.546-57.944z"/></g><g class="B"><path d="M838.668 555.539c0 .212-24.673.4-55.112.4s-55.126-.184-55.126-.4 24.673-.382 55.126-.382l55.112.382zm-60.848-66.654c-.184.113-.921-.765-1.671-1.955s-1.19-2.238-1.02-2.351.935.765 1.671 1.94 1.204 2.252 1.02 2.366zm.042 15.594a6.19 6.19 0 0 1 .567-2.946c.524-1.558 1.1-2.762 1.3-2.691s0 1.417-.567 2.932-1.101 2.776-1.3 2.705zm5.34 16.388c-.2.085-1.006-1.218-1.827-2.932a7.96 7.96 0 0 1-1.133-3.258c.2-.085 1.006 1.218 1.827 2.932a7.72 7.72 0 0 1 1.133 3.258zm-11.557 13.13c-.156-.142.5-1.161 1.416-2.266s1.884-1.9 2.04-1.77-.5 1.161-1.417 2.266-1.869 1.954-2.039 1.77zm-2.422-23.881c0 .2-1.091.2-2.351 0s-2.252-.567-2.224-.779 1.091-.2 2.351 0 2.267.581 2.224.779zm-240.942-293.73l-75.069-26.911c4.915 58.553 9.688 118.566-5.878 175.221-1.686 6.133-3.173 13.81 1.7 17.889 2.918 2.436 7.082 2.521 10.892 2.408q11.671-.354 23.3-1.714c8.243-.949 17-2.564 22.9-8.428 4.915-4.929 6.9-11.982 8.5-18.739 11.216-45.682 15.815-92.737 13.655-139.726z"/></g><g class="D"><path d="M405.38 458.078l8.895-11.657 5.949-31.161 13.541-75.847s5.963-28.526 24.362-36.7l3.9 75.777-37.54 95.225z"/><path d="M486.058 282.093l-11.062 13.087-16.869 7.507-38.073 71.6c-.935.667-6.954 20.892-3.64 38.129s5.666 39.786 5.3 56.018-21.6 69.63-22.9 81.9L393.143 610l187.643-1.416a344.36 344.36 0 0 0-6.969-35.41s-.666-47.081-7.62-56.032c0 0 5.3-12.266 4.646-19.22s27.846-44.092 33.483-57.024 27.846-42.492 28.172-63.653-2.989-39.121-13.6-53.709-29.826-24.529-37.786-29.829l-15.58-19.9z"/></g><path d="M419.162 610c-.019-.189-.019-.378 0-.567v-1.671l.269-6.388.977-23.484.425-16.232v-9.022a41.37 41.37 0 0 1 .949-9.6c1.594-6.695 3.643-13.273 6.133-19.688 1.276-3.382 2.36-6.835 3.244-10.34.352-1.806.593-3.632.722-5.467l.552-5.666 2.21-22 1.062-10.467c.354-3.385.779-6.756.878-10.028a257.48 257.48 0 0 1 4.717-34.447l4.8-23.03 1.3-6.246.354-1.629a3.59 3.59 0 0 1 .142-.552c-.008.19-.031.38-.071.566l-.269 1.643-1.176 6.289-4.575 23.059a264.47 264.47 0 0 0-4.561 34.5c-.085 3.286-.552 6.615-.864 10.042l-1.034 10.467-2.2 22.011-.552 5.665c-.138 1.864-.389 3.718-.751 5.552-.882 3.537-1.974 7.018-3.272 10.425a151.25 151.25 0 0 0-6.147 19.589c-.683 3.097-1.01 6.262-.977 9.433a148.05 148.05 0 0 1 0 9.065l-.51 16.232-1.2 23.484-.425 6.388q-.085 1.048-.127 1.657.003.231-.023.457z" class="B"/><path d="M448.382 392.812c0-1.516 6.657-27.223 20.566-48.71s17-40.24 17-40.24l.227-27.733 1.19 3.569 70.536-10.226 2.139 10.2-47.208 42.647s-21.812 4.249-22.662 4.844-41.788 65.649-41.788 65.649z" class="F"/><g class="B"><path d="M581.111 293.735a6.25 6.25 0 0 1-.623.977l-1.9 2.748c-1.671 2.365-4.164 5.736-7.323 9.844l-11.133 14.391-6.374 8.64c-.534.797-1.126 1.555-1.77 2.266a4.39 4.39 0 0 1-2.705 1.416 5.44 5.44 0 0 1-2.96-.85c-.878-.51-1.671-1.048-2.507-1.586l-9.716-6.232-4.617-2.946c-1.372-.992-3.039-1.491-4.731-1.416-1.594.293-3.086.99-4.334 2.025-1.275.963-2.535 1.94-3.853 2.748a27.34 27.34 0 0 1-7.875 3.272c-4.012 1.005-8.198 1.102-12.252.283a17.64 17.64 0 0 1-1.884-.453l-1.416-.425c-.374-.112-.735-.263-1.076-.453a8.96 8.96 0 0 1 1.119.312c.368.113.822.227 1.416.354.621.159 1.25.287 1.884.382a28.24 28.24 0 0 0 12.068-.5c2.713-.699 5.303-1.812 7.677-3.3 1.275-.793 2.493-1.756 3.8-2.748 1.326-1.12 2.923-1.872 4.631-2.181 1.837-.117 3.661.381 5.184 1.416l4.646 2.946 9.716 6.218c1.657 1.006 3.258 2.408 5.014 2.323a3.57 3.57 0 0 0 2.238-1.19c.624-.684 1.197-1.413 1.714-2.181 2.167-3.017 4.334-5.906 6.416-8.626 4.164-5.439 8.059-10.226 11.331-14.291s5.75-7.394 7.493-9.7l2.025-2.663a8.9 8.9 0 0 1 .677-.82z"/><path d="M474.996 374.654a11.47 11.47 0 0 1 1.048-2.011l3.173-5.283c2.833-4.419 6.77-10.41 11.572-16.756s9.461-11.827 12.974-15.68c1.756-1.926 3.2-3.456 4.249-4.49a13.29 13.29 0 0 1 1.643-1.558 12.57 12.57 0 0 1-1.416 1.742l-4.051 4.646c-3.385 3.938-7.988 9.461-12.747 15.793a342.85 342.85 0 0 0-11.714 16.586l-3.371 5.156a13.83 13.83 0 0 1-1.36 1.856zm6.09 5.438h.269l.807.17 3.13.666 11.9 2.507 8.5 1.6 4.858.751a49.95 49.95 0 0 1 5.2 1.147c3.541.907 7.252 2.1 11.119 3.442 1.94.68 3.909 1.416 5.92 2.2l3.031 1.232 1.516.666.765.368.4.212.2.128.1.085a.6.6 0 0 1 .184.326v.085l-14.787 47.222h0a28.98 28.98 0 0 1-2.833 4.32c-1.069 1.433-2.327 2.714-3.739 3.81a6.36 6.36 0 0 1-1.728.935l-1.756.595-3.484 1.176-6.827 2.365-13.286 4.462-.2.071-.156-.142-13.895-12.875-3.286-3.059a41.28 41.28 0 0 1-3.173-3.116 8.02 8.02 0 0 1-1.87-3.994c-.186-1.413-.157-2.845.085-4.249 1.9-10.849 4.037-20.354 5.977-28.243a401.22 401.22 0 0 1 4.986-18.413l1.5-4.887.411-1.246c.041-.148.098-.29.17-.425a1.5 1.5 0 0 1-.1.439c-.1.283-.213.737-.354 1.275l-1.416 4.9c-1.19 4.249-2.9 10.524-4.787 18.413s-3.966 17.407-5.793 28.214a13.5 13.5 0 0 0-.085 4.065 7.21 7.21 0 0 0 1.756 3.669c.977 1.071 2.012 2.088 3.1 3.045l3.3 3.173 13.904 12.842h-.354l13.272-4.49 6.884-2.323 3.484-1.176 1.756-.595a5.66 5.66 0 0 0 1.516-.836 19.6 19.6 0 0 0 3.6-3.668 29.25 29.25 0 0 0 2.705-4.249h0l14.886-47.194.269.1a186.72 186.72 0 0 0-23-8.158c-1.756-.467-3.484-.864-5.141-1.161s-3.314-.51-4.872-.793c-3.1-.552-5.949-1.133-8.5-1.671l-11.869-2.677-3.116-.765-.793-.212c-.175-.016-.274-.045-.26-.059z"/></g><g class="G"><path d="M482.63 543.671c-16.4-2.479-39.192-9.32-57.888-13.229-6.671-1.416-12.45-3-19.121-4.391l-1.147 3.7a223.21 223.21 0 0 1 54.531 19.447c10.368 5.312 20.651 11.515 32.18 13.2 12.9 1.9 25.863-2.068 38.242-5.991 7.082-2.224 14.376-4.646 19.376-10.028 3.527-3.81 5.538-8.739 7.393-13.583q7.323-19.22 12.818-39.092c-22.264 25.01-53.283 54.981-86.384 49.967z"/></g><path d="M559.964 382.245l-47.137 86.683s-10.935 2.2-10.935 13.767c0 0-3.81-3.045-9.348.255-3.555 2.11-13.569 4.929-19.107 7.889-2.729 1.449-4.084 4.6-3.258 7.578l14.631 53.157s17.775 0 19.348-4.4l24.376-7.634s15.736-4.122 21.826-14.631 42.378-64.559 42.378-64.559" class="D"/><path d="M592.736 460.345s-.1.2-.326.552l-1.006 1.558-3.966 6.02-14.844 22.435-10.4 15.864-11.832 18.628c-2.214 3.444-5.171 6.349-8.654 8.5-3.594 2.31-7.469 4.152-11.529 5.481l-25.906 8.13.227-.226c-.386.825-1.039 1.495-1.855 1.9a12.33 12.33 0 0 1-2.38.963 30.9 30.9 0 0 1-5.014 1.062 81.53 81.53 0 0 1-10.439.736h-.283v-.269l-8.257-30q-2.238-8.088-4.4-16.019l-2.125-7.9c-.452-2.879.931-5.736 3.47-7.167a144.82 144.82 0 0 1 14.56-5.864l3.5-1.416a28.6 28.6 0 0 1 3.442-1.657 8.34 8.34 0 0 1 7.464.836l-.567.269c-.06-3.342 1.064-6.598 3.173-9.192a15.34 15.34 0 0 1 8.059-4.9l-.227.17 34.206-62.647 9.7-17.648 2.592-4.66.68-1.175c.07-.14.15-.273.241-.4a.82.82 0 0 1-.2.411l-.637 1.218-2.493 4.7-9.532 17.733-33.993 62.774v.127h-.156a14.76 14.76 0 0 0-7.677 4.688 13.4 13.4 0 0 0-2.989 8.753v.666l-.552-.4c-2.028-1.294-4.548-1.557-6.8-.708a27.95 27.95 0 0 0-3.357 1.629c-1.161.552-2.351 1.034-3.555 1.5-4.924 1.681-9.752 3.629-14.463 5.836a6.26 6.26 0 0 0-3.1 6.416c.609 2.535 1.416 5.2 2.11 7.818q2.167 7.917 4.4 16.034l8.243 29.985-.34-.269c3.458-.012 6.912-.249 10.34-.708 1.663-.218 3.306-.563 4.915-1.034.771-.223 1.517-.527 2.224-.906.668-.32 1.211-.853 1.544-1.515l.071-.156h.156l25.906-8.073c3.99-1.313 7.798-3.128 11.331-5.4 3.41-2.095 6.313-4.92 8.5-8.272 4.079-6.7 8.144-12.861 11.9-18.611l10.481-15.821 14.872-22.45 4.051-5.963 1.062-1.53a3.02 3.02 0 0 1 .434-.436z" class="B"/><g class="C"><path d="M567.231 496.505a2.99 2.99 0 0 1-.269-.836l-.623-2.408-2.209-8.937-7.564-29.348-8.258-29.177-2.592-8.824-.694-2.394a3.74 3.74 0 0 1-.184-.864c.14.26.25.536.326.822l.821 2.351 2.833 8.753c2.323 7.408 5.368 17.7 8.5 29.135s5.665 21.869 7.365 29.433l1.983 8.98.482 2.45a6.51 6.51 0 0 1 .083.864zm-17.195 27.096c-.2 0-4.136-20.5-8.782-45.848l-8.073-46c.199-.038 4.136 20.5 8.8 45.863l8.055 45.985zM472.46 403.292c.113.17-6.8 5.071-15.424 10.949s-15.736 10.495-15.85 10.33 6.8-5.071 15.424-10.935 15.737-10.514 15.85-10.344zm-4.589 18.499a6.01 6.01 0 0 1-1.02 1.076l-2.974 2.705a251.86 251.86 0 0 1-10.184 8.5c-4.065 3.217-7.818 6.034-10.58 8l-3.3 2.294c-.399.292-.826.543-1.275.751a5.73 5.73 0 0 1 1.1-.992l3.158-2.479 10.439-8.159 10.3-8.328 3.13-2.521a5.66 5.66 0 0 1 1.206-.847zm-30.817 2.011c-.17.128-5.1-6.345-11.005-14.433s-10.58-14.759-10.41-14.886 5.085 6.345 11.005 14.447 10.591 14.758 10.41 14.872zM434.6 448.63c-.921-.623-1.763-1.355-2.507-2.181l-5.453-5.878-4.886-6.359c-.687-.869-1.263-1.821-1.714-2.833a15.58 15.58 0 0 1 2.139 2.521l5.028 6.19 5.255 6.005a16.71 16.71 0 0 1 2.139 2.535zm128.821-132.955c-1.217-.697-2.382-1.483-3.484-2.351l-8.158-5.949-8.059-6.1c-1.144-.817-2.206-1.742-3.173-2.762a25.49 25.49 0 0 1 3.484 2.337l8.187 5.935 8.073 6.1a20.7 20.7 0 0 1 3.13 2.79zm6.458-8.951a114.09 114.09 0 0 1-10.226-8 117.47 117.47 0 0 1-9.773-8.583 111.88 111.88 0 0 1 10.241 8.017 114.36 114.36 0 0 1 9.758 8.566zm-68.057 89.883c.2 0-2.323 14.164-5.666 31.43l-6.374 31.288c-.199-.028 2.337-14.164 5.665-31.43l6.375-31.288z"/></g><g class="B"><path d="M537.685 502.015c-.429-.142-.838-.337-1.218-.581-.779-.411-1.855-1.062-3.173-1.912a62.32 62.32 0 0 1-9.433-7.719 60.9 60.9 0 0 1-7.719-9.433l-1.912-3.159a4.59 4.59 0 0 1-.567-1.232c.1 0 1.1 1.586 2.918 4.093a75.75 75.75 0 0 0 7.8 9.221 78.2 78.2 0 0 0 9.206 7.8 50.22 50.22 0 0 1 4.098 2.922zm1.558-27.195c-1.306.405-2.657.647-4.023.722-6.584.678-13.236-.027-19.532-2.068a16.12 16.12 0 0 1-3.782-1.558c0-.1 1.516.411 3.938 1.062a60.37 60.37 0 0 0 9.575 1.813 62.19 62.19 0 0 0 9.759.241 34.76 34.76 0 0 1 4.065-.212zM437.957 340.164c-.017.117-.051.232-.1.34l-.382.963c-.312.85-.85 2.082-1.572 3.64a141.25 141.25 0 0 1-7.011 12.748 116.44 116.44 0 0 0-9.745 19.192l-.51 1.416-.425 1.416-.821 3.031a20.83 20.83 0 0 0-.666 3.13l-.538 3.229-.524 6.685v3.442l.1 3.47c.687 8.838 1.908 17.625 3.654 26.316a186.84 186.84 0 0 1 2.918 21.444c.283 3.059.142 5.864.184 8.314l-.524 6.26c-.212 1.713-.524 2.96-.694 3.909l-.2 1.005a1.42 1.42 0 0 1-.1.34 1.4 1.4 0 0 1 0-.354 5.31 5.31 0 0 1 .127-1.02l.552-3.909c.24-1.643.241-3.81.4-6.246-.085-2.436 0-5.212-.3-8.272-.635-7.165-1.656-14.29-3.059-21.345a213.66 213.66 0 0 1-3.711-26.246c-.1-1.176-.113-2.337-.1-3.513v-3.47c.142-2.28.283-4.547.538-6.756l.567-3.258a21.38 21.38 0 0 1 .666-3.173l.864-3.059.425-1.5a35.87 35.87 0 0 1 .524-1.416 113 113 0 0 1 9.915-19.22c3.187-5.255 5.666-9.561 7.2-12.648l1.7-3.569c.17-.383.312-.68.439-.935a1.2 1.2 0 0 1 .212-.382zm48.101-58.072l-.184.3-.566.822c-.5.736-1.3 1.77-2.365 3.073-2.139 2.62-5.382 6.275-9.476 10.765q-3.038 3.4-6.657 7.393c-2.58 2.82-5.015 5.77-7.294 8.838a57.63 57.63 0 0 0-9.164 24.518l-.694-.2a41.4 41.4 0 0 1 3.98-6.161l2.238-3.116c.354-.524.708-1.048 1.02-1.586l.467-.807.227-.411.1-.212v-.1l.085-.128a.41.41 0 0 1 .383-.142.44.44 0 0 1 .312.227v.2l.085.227.17.453a5.23 5.23 0 0 1 .3.906 12.21 12.21 0 0 1 .411 1.87 19.51 19.51 0 0 1 .241 3.739 74.3 74.3 0 0 1-2.323 13.895c-1.657 8.838-4.688 16.4-6.487 22.9a59.01 59.01 0 0 0-2.62 15.722 36.49 36.49 0 0 0 .2 4.334 8.84 8.84 0 0 0 .127 1.119 1.21 1.21 0 0 1 0 .4 26.1 26.1 0 0 1-.637-5.85c.05-5.376.866-10.718 2.422-15.864 1.742-6.558 4.7-14.164 6.317-22.9a74.89 74.89 0 0 0 2.266-13.767c.033-1.209-.047-2.418-.241-3.612a11.53 11.53 0 0 0-.4-1.785 4.69 4.69 0 0 0-.269-.864l-.17-.425-.071-.212v-.113h0c.113 0-.283.1.269-.142h0c-.241-.127.34.156.269.142h0v.1l-.028.156-.227.439-.482.836c-.34.552-.68 1.091-1.048 1.615-.722 1.062-1.487 2.1-2.252 3.144a41.11 41.11 0 0 0-3.909 6.02l-1.048 2.209.354-2.408a57.59 57.59 0 0 1 9.362-24.8c2.422-3.286 4.986-6.161 7.379-8.838l6.742-7.351 9.617-10.595 2.465-2.989.623-.779c.082-.134.172-.219.181-.205zm2.932 202.147a2.54 2.54 0 0 1 .5.482l1.317 1.487a26.3 26.3 0 0 1 1.969 2.436l2.422 3.385 2.62 4.32 2.634 5.156c1.811 4.045 3.27 8.239 4.362 12.535a78.32 78.32 0 0 1 1.94 13.13c0 2.039.156 3.98 0 5.793a48.49 48.49 0 0 1-.34 5.042c-.1 1.544-.382 2.918-.567 4.122a27.48 27.48 0 0 1-.623 3.074l-.482 1.926c-.038.231-.109.455-.212.666a2.3 2.3 0 0 1 .071-.694l.34-1.955c.128-.779.368-1.87.5-3.088s.4-2.564.467-4.107.255-3.187.241-5 0-3.711-.113-5.736a81.15 81.15 0 0 0-1.983-12.988c-1.072-4.255-2.493-8.414-4.249-12.436-.864-1.827-1.643-3.583-2.549-5.142s-1.7-3.031-2.521-4.32-1.629-2.436-2.309-3.428-1.331-1.841-1.87-2.507l-1.2-1.572a2.95 2.95 0 0 1-.365-.581zm44.97-77.151a12.28 12.28 0 0 1-2.139-.722l-5.765-2.11a232.71 232.71 0 0 0-19.334-6.048c-7.649-2.025-14.688-3.456-19.829-4.348l-6.062-1.02a15.15 15.15 0 0 1-2.224-.425 12.3 12.3 0 0 1 2.266.142c1.416.142 3.527.411 6.1.793a189.82 189.82 0 0 1 19.829 4.136 192.66 192.66 0 0 1 19.475 6.274c2.422.949 4.362 1.742 5.666 2.351a12.97 12.97 0 0 1 2.017.977z"/></g><g class="G"><path d="M526.284 506.987a19.58 19.58 0 0 0-3.994-5.113l-20.34-20.708v1.53c4.518 3.074 5.481 9.306 6.784 14.617s2.436 10.991 6.133 15.028a9.76 9.76 0 0 0 5.666 3.244c2.228.382 4.48-.535 5.807-2.365 1.03-1.955 1.009-4.297-.056-6.233z"/><path d="M498.338 457.866a12.55 12.55 0 0 1-6.954 1.091 12.38 12.38 0 0 1-5.255-3.371l-16.926-15.425c4.844 7.082 8.725 14.334 13.569 21.458 1.3 1.926 2.748 3.952 4.929 4.745s4.816.1 7.082-.765c8.142-3.131 15.507-7.993 21.586-14.249z"/><path d="M477.078 370.39c15.821-7.578 21.515-28.625 37.223-36.458 9.217-4.46 20.127-3.583 28.512 2.294 2.72 1.955 5.736 4.561 8.966 3.64 2.436-.694 3.838-3.173 4.986-5.425q5.892-11.529 11.784-23.087l-15.453 18.215a8.5 8.5 0 0 1-4.008 3.116c-3.116.807-5.368-2.691-8.243-4.122-8.952-4.462-15.24-10.085-20.226-6.317 0 0-8.711 5.991-12.2 6.629l-31.341 40.92"/><path d="M450.139 385.801c-1.3-6.969.255-14.674 3.13-21.147s6.487-12.747 8.258-19.574c1.416-5.495 1.615-11.233.581-16.812-.5-2.606-1.246-5.255-.68-7.847.438-1.641 1.157-3.193 2.125-4.589a102.37 102.37 0 0 1 12.351-16.005l9.915-14.872s.425 17.28.1 18.909a109.63 109.63 0 0 1-4.249 15.07 120.29 120.29 0 0 1-11.218 22.945 181.29 181.29 0 0 0-13.923 26.146z"/></g><path d="M512.827 322.318c-20.07-4.731-26.232-14.716-26.472-32.364l-.3-22.464s-22.223-1.147-27.407-34.248c-2.578-16.458-4.816-43.058-3.371-65.154 1.289-19.829 21.911-54.842 41.67-52.7l54.3 26.416c6.005.649 10.517 5.783 10.389 11.822h0l-4.249 128.28" class="F"/><g class="B"><path d="M463.764 192.466a4.25 4.25 0 0 0 4.079 4.249 4.05 4.05 0 0 0 4.377-3.824 4.25 4.25 0 0 0-4.065-4.249 4.08 4.08 0 0 0-4.391 3.824zm-2.635-9.138c.453.4 3.8 0 8.229 1.034s7.464 3.059 7.988 2.833c.269 0-.17-.708-1.487-1.6a20.59 20.59 0 0 0-6.331-2.663 18.1 18.1 0 0 0-6.614-.467c-1.459.268-2.011.665-1.785.863zm45.127 10.412a4.25 4.25 0 0 0 4.093 4.249c1.09.086 2.169-.272 2.993-.991a4.06 4.06 0 0 0 1.384-2.833 4.25 4.25 0 0 0-4.079-4.249 4.08 4.08 0 0 0-4.391 3.824zm-.17-6.852c.666.156 3.6-2.082 8.385-3.357s8.739-.921 9.15-1.416c.212-.212-.538-.623-2.266-.821-2.507-.206-5.03.039-7.45.722-2.36.584-4.582 1.623-6.544 3.059-1.275 1.029-1.587 1.738-1.275 1.813zm-16.757 30.065c0-.255-2.833-.751-7.422-1.346-1.161-.127-2.266-.354-2.464-1.161a5.95 5.95 0 0 1 .793-3.442l3.47-8.881c4.816-12.62 8.3-23 7.79-23.2s-4.83 9.915-9.646 22.521l-3.314 8.923c-.745 1.403-.965 3.024-.623 4.575a2.96 2.96 0 0 0 1.912 1.785 7.68 7.68 0 0 0 1.983.269c4.632.198 7.493.226 7.521-.043z"/></g><path d="M486.058 267.816a84.1 84.1 0 0 0 44.319-11.714c0 0-11.175 23.314-44.319 20.113z" class="J"/><g class="B"><path d="M502.757 220.14c-.751 0-.765 4.915-5.014 8.5s-9.518 2.946-9.561 3.64c-.071.312 1.176.963 3.4 1.034 2.903.038 5.728-.939 7.988-2.762a10.74 10.74 0 0 0 3.881-7.082c.171-2.126-.354-3.358-.694-3.33zm-.382-53.214c.567 1.19 5.042.156 10.439.269s9.844 1.147 10.453 0c.255-.567-.609-1.657-2.465-2.677a18.16 18.16 0 0 0-15.906-.2c-1.884.965-2.776 2.027-2.521 2.608zm-42.662 6.345c1.006 1.034 4.915 0 9.6-.113s8.683.68 9.6-.4c.4-.538-.241-1.572-1.969-2.549a15.78 15.78 0 0 0-7.819-1.686 15.38 15.38 0 0 0-7.648 2.1c-1.636 1.076-2.189 2.195-1.764 2.648zm149.443 118.312c-7.209-11.657-13.1-40.707-15.58-55.423s-10.311-61.939-22.861-86.754-27.322-34.843-41.812-38.752c-11.178-3.325-23.28-.575-31.925 7.252-6.544 5.85-8.781 22.9-8.781 22.9s34.97 7.776 46.741 27.719c13.526 22.9 16.812 34.418 16.812 34.418l4.377 12.535-5.666 36.245c-1.559 11.996.892 23.115 10.765 27.974l19.829 14.039 27.138 18.54c5.538 4.249 16.4 20.353 16.4 20.353s-.692-17.209-15.437-41.046z"/><path d="M487.194 141.021s-20-2.2-27.393 20.467c-3.329 10.212-5.892 39.659-5.892 39.659s-2.918-23.427-1.841-36.826 7.748-30.282 18-39.659c9.915-9.107 18.413-13.385 36.189-12.294 0 0-8.3 2.833-12.861 9.617-2.282 3.441-3.274 6.313-6.202 19.036z"/></g><path d="M551.494 204.687c.354-7.323 8.328-12.2 14.674-8.5 3.484 2.025 6.161 6.076 5.835 13.838-.85 20.736-21.487 15.58-21.5 15 0-.408.552-11.754.991-20.338z" class="F"/><path d="M557.16 217.392c.1 0 .354.269.949.581a3.57 3.57 0 0 0 2.691.156c2.224-.708 4.249-4.108 4.476-7.833.122-1.776-.153-3.556-.807-5.212-.351-1.31-1.318-2.367-2.592-2.833a1.84 1.84 0 0 0-2.181.906c-.3.567-.184.977-.3 1.02s-.425-.368-.227-1.218a2.34 2.34 0 0 1 .864-1.275c.595-.397 1.319-.554 2.025-.439 1.714.42 3.09 1.695 3.64 3.371a12.18 12.18 0 0 1 1.006 5.821c-.3 4.178-2.592 8-5.665 8.739-1.137.283-2.342.032-3.272-.68-.593-.595-.678-1.062-.607-1.104z" class="J"/><g class="E"><path d="M520.617 109.35c0 .156-2.833 0-7.351.666a25.4 25.4 0 0 0-7.564 2.266c-2.888 1.46-5.466 3.466-7.592 5.906-3.948 4.418-6.823 9.688-8.4 15.4-1.2 4.391-1.346 7.238-1.5 7.224-.039-.667-.015-1.337.071-2 .178-1.804.486-3.594.921-5.354a37.11 37.11 0 0 1 8.357-15.75c3.938-4.644 9.522-7.583 15.58-8.2 1.806-.201 3.622-.291 5.439-.269.682-.032 1.365.005 2.039.111z"/><path d="M570.672 219.673a1.02 1.02 0 0 1 0-.34l.17-.963.312-1.572.312-2.153a49.15 49.15 0 0 0-.184-13.852c-1.04-6.797-3.481-13.303-7.167-19.107a55.89 55.89 0 0 0-18.2-17.082 103.03 103.03 0 0 0-11.572-6.062c-3.838-1.771-7.691-3.144-11.331-4.759a134.91 134.91 0 0 1-17.974-10.155c-4.915-3.258-8.739-6.119-11.331-8.144l-2.946-2.379-.751-.637c-.17-.156-.255-.227-.241-.241l.283.184.793.581 3.045 2.266c2.649 1.955 6.515 4.745 11.444 7.932a137.7 137.7 0 0 0 18.059 9.915c3.527 1.586 7.408 2.96 11.331 4.717 4.01 1.783 7.903 3.817 11.657 6.09a56.09 56.09 0 0 1 18.413 17.351c3.708 5.892 6.121 12.505 7.082 19.4a47.23 47.23 0 0 1 0 13.951l-.382 2.167-.368 1.558-.255.963a2.71 2.71 0 0 1-.199.371zm4.802-7.819a1.93 1.93 0 0 1 0-.34v-.991-3.81a79.32 79.32 0 0 0-7.776-33.5 77.43 77.43 0 0 0-14.48-20.63c-6.033-5.935-12.859-11.006-20.282-15.07-6.77-3.881-13.158-6.869-18.413-9.461l-12.549-6.246-3.343-1.813-.864-.5a1.31 1.31 0 0 1-.283-.2.73.73 0 0 1 .326.127l.892.425 3.4 1.7 12.648 6.02c5.354 2.493 11.756 5.5 18.583 9.348a91.14 91.14 0 0 1 20.467 15.141 77.9 77.9 0 0 1 14.575 20.863 80.31 80.31 0 0 1 6.317 19.829 74.02 74.02 0 0 1 1.126 13.98c0 1.657-.156 2.946-.2 3.81 0 .4-.071.722-.085.992-.006.111-.026.22-.059.326zm-.609 77.462a2.75 2.75 0 0 1-.312-.623l-.779-1.841-1.1-2.974-1.232-4.022-.623-2.365-.566-2.592c-.425-1.8-.68-3.739-1.02-5.765a122.8 122.8 0 0 1-1.006-13.371 210.3 210.3 0 0 1 1.2-24.291l.836-7.309.269-1.983c.025-.235.072-.468.142-.694a2.58 2.58 0 0 1 0 .708l-.142 2-.595 7.337c-.482 6.19-1.147 14.759-.991 24.22a129.44 129.44 0 0 0 .949 13.286c.312 2.025.552 3.966.935 5.665.184.892.326 1.756.524 2.592l.581 2.351c.326 1.516.779 2.833 1.119 4.037a42.03 42.03 0 0 0 .977 3l.652 1.884c.106.237.168.491.182.75z"/></g><path d="M312.664 479.579s22.521 28.894 30.594 31.161 38.653 9.844 38.653 9.844l100.351 23.186-11.813-43.016-95.04-1.289z" class="F"/><path d="M183.631 332.445c7.521 18.654 45.423 103.991 54.205 123.75 1.155 2.604 3.373 4.585 6.09 5.439l119.288 37.874 118.353 8.838v-3.895l-95.677-28.993-30.226-3.541-45.125-111.895a16.12 16.12 0 0 0-12.053-9.83l-112.49-20.623a2.14 2.14 0 0 0-2.365 2.875z" class="E"/><path d="M481.568 504.452h-.383l-1.091-.085-4.249-.382-15.51-1.558-22.988-2.422-28.172-2.833c-10-.991-19.532-1.742-28.214-2.238l-12.34-.766a21.26 21.26 0 0 1-2.833-.368 5.67 5.67 0 0 1-1.417-.453 2.45 2.45 0 0 1-1.076-1.034c-.742-1.577-1.395-3.194-1.955-4.844l-5.51-14.575-1.416-3.98-.368-1.048c-.046-.114-.08-.233-.1-.354.026.126.085.243.17.34l.425 1.006 1.6 3.938 5.736 14.5a45.94 45.94 0 0 0 1.94 4.716c.193.354.49.64.85.821.4.174.818.303 1.246.383.935.176 1.882.285 2.833.326l12.337.722c8.7.453 18.257 1.176 28.257 2.167l28.172 2.833 22.988 2.564 15.5 1.785 4.249.524 1.091.142z" class="B"/><path d="M420.408 481.591s1.714-11.246 0-13.47-13.767-13.059-13.767-13.059l-6.841-6.43-15.084-2.309a4.59 4.59 0 0 0-4.6 2.124l-1.544 2.479-4.093-.68-3.612-5.227h-10.06l-7.436 8.031v10.85s1.006 3.017 3.626.807 2.833-8.328 2.833-8.328l4.461 4.108-4.74 14.475s3.329 3.031 5.751 0l5.821-7.436s4.023 10.849 10.85 14.065 23.314 6.147 26.741 5.382 11.043.638 11.694-5.382z" class="F"/><g class="J"><path d="M396.542 456.917s0 .17-.269.411a2.96 2.96 0 0 1-1.19.751 5.87 5.87 0 0 1-2.2.312c-.864 0-1.813-.212-2.833-.312a5 5 0 0 0-3.173.5 14.47 14.47 0 0 0-2.649 2.833 11.94 11.94 0 0 1-8.059 4.377c-2.634.195-5.181-.989-6.728-3.13l-.156-.227.2-.2a79.02 79.02 0 0 0 7.294-8.895l2.592-3.725c-.123.386-.299.754-.524 1.091a35.08 35.08 0 0 1-1.714 2.833 65.06 65.06 0 0 1-7.082 9.136v-.439a6.97 6.97 0 0 0 6.119 2.833 11.42 11.42 0 0 0 7.578-4.093 14.97 14.97 0 0 1 2.833-2.918 5.51 5.51 0 0 1 3.569-.5l2.833.425a6.21 6.21 0 0 0 2.082-.17c.548-.193 1.051-.497 1.477-.893zm11.841 24.079c-.085 0-.17-.637-.623-1.7a16.47 16.47 0 0 0-2.606-4.122l-4.731-5.666a12.02 12.02 0 0 1-1.87-4.037 9.63 9.63 0 0 1 .071-4.787c.421-1.551 1.159-2.997 2.167-4.249a5.12 5.12 0 0 1 1.813-1.516 2.68 2.68 0 0 1 2.351.071 5.41 5.41 0 0 1 2.394 3.286 15.36 15.36 0 0 0 1.416 3.1 13.03 13.03 0 0 0 3.2 3.64l1.416 1.091a5.78 5.78 0 0 1-1.629-.85 12.52 12.52 0 0 1-3.484-3.612c-.591-.995-1.066-2.055-1.416-3.159a4.84 4.84 0 0 0-2.125-2.833 2 2 0 0 0-1.771 0 4.38 4.38 0 0 0-1.53 1.331 11.14 11.14 0 0 0-2.011 4.008 8.95 8.95 0 0 0-.1 4.447 11.83 11.83 0 0 0 1.742 3.81c1.544 2.252 3.3 4.051 4.575 5.736a15.01 15.01 0 0 1 2.465 4.348c.15.431.255.878.312 1.331q.017.332-.026.332zm-38.327-27.733a3.19 3.19 0 0 0-2.181.892 14.59 14.59 0 0 0-2.691 5.34l-2.11 5.807c-.249.829-.637 1.61-1.147 2.309a10.68 10.68 0 0 1 .652-2.479l1.912-5.892a12.85 12.85 0 0 1 3.045-5.467 2.83 2.83 0 0 1 1.827-.722c.481-.054.703.099.693.212z"/><path d="M371.133 453.008c0 .085-.623.212-1.657.085-1.394-.197-2.704-.781-3.782-1.686h.538l-.921.807a32.81 32.81 0 0 1-5.467 4.164 31.83 31.83 0 0 1 4.986-4.731l.935-.793.241-.2.227.2a8.5 8.5 0 0 0 3.413 1.771c.505.086 1.003.213 1.487.382zm15.962 25.906c.217-.908.581-1.774 1.077-2.564 1.059-1.974 2.342-3.82 3.824-5.5a30.14 30.14 0 0 1 4.957-4.518 8.5 8.5 0 0 1 2.412-1.412 88.06 88.06 0 0 0-6.813 6.388 83.58 83.58 0 0 0-5.457 7.606z"/></g><path d="M302.055 351.977a1.15 1.15 0 0 1 .184.368l.482 1.1 1.756 4.249 6.317 15.722 20.608 51.967 20.4 52.052 6.119 15.807 1.615 4.249.411 1.133a1.7 1.7 0 0 1 .113.4c-.072-.117-.134-.24-.184-.368q-.184-.425-.467-1.1l-1.756-4.249-6.336-15.72-20.608-51.982-20.4-52.038-6.1-15.807-1.629-4.32-.411-1.119q-.066-.171-.114-.344z" class="B"/><ellipse cx="6.813" cy="9.291" rx="6.813" ry="9.291" transform="matrix(.810349 -.585948 .585948 .810349 260.093 405.231)" class="C"/><rect width="300.84" height="186.453" rx="7.87" x="81" y="116.29" class="B"/><circle cx="231.42" cy="212.052" r="22.917" class="D"/><g class="C"><path d="M225.897 218.752v-13.526c0-.307.164-.591.429-.745s.593-.157.86-.006l12.082 6.813c.269.154.435.44.435.75s-.166.596-.435.75l-12.082 6.77a.86.86 0 0 1-.885-.019c-.269-.169-.424-.471-.404-.788zM98.195 281.313v.566h-2.267v-.382l1.232-1.161a.82.82 0 0 0 .34-.637c0-.283-.184-.439-.567-.439a.89.89 0 0 0-.722.312l-.4-.3a1.42 1.42 0 0 1 1.161-.51c.68 0 1.1.326 1.1.878a1.22 1.22 0 0 1-.51.963l-.822.779z"/><path d="M98.535 279.798a.35.35 0 0 1 .099-.259c.067-.069.159-.109.255-.109a.37.37 0 0 1 .368.368.37.37 0 0 1-.368.369.35.35 0 0 1-.255-.109.36.36 0 0 1-.099-.259zm0 1.671a.35.35 0 0 1 .099-.259c.067-.069.159-.109.255-.109a.37.37 0 0 1 .368.369.37.37 0 0 1-.368.368.35.35 0 0 1-.255-.109.36.36 0 0 1-.099-.259zm2.124-2.734v3.144h-.581v-2.592h-.637v-.482zm3.343 2.365h-.538v.708h-.552v-.708h-1.686v-.4l1.558-1.969h.609l-1.416 1.884h1.006v-.609h.538v.609h.538zm5.014-1.217h232.996v1.062H109.016z"/></g><g class="D"><path d="M108.846 278.736h72.816v2.833h-72.816z"/><path d="M184 280.464a3.54 3.54 0 0 1-6.045 2.504 3.54 3.54 0 0 1 2.504-6.045 3.54 3.54 0 0 1 3.541 3.541z"/></g><g class="C"><path d="M347.819 280.378a1.02 1.02 0 0 1-1.119.991c-.836 0-1.331-.538-1.331-1.53-.067-.429.067-.865.363-1.182a1.42 1.42 0 0 1 1.153-.447 1.53 1.53 0 0 1 .793.2l-.2.425a1.16 1.16 0 0 0-.595-.142c-.567 0-.935.354-.935 1.048h0a1.06 1.06 0 0 1 .821-.326.95.95 0 0 1 1.048.963zm-.552 0c0-.326-.241-.524-.609-.524a.56.56 0 0 0-.422.13.57.57 0 0 0-.201.394c0 .283.227.51.637.51a.52.52 0 0 0 .421-.068c.125-.082.208-.211.231-.357zm.892-1.062a.34.34 0 0 1 .354-.354.35.35 0 0 1 .259.099c.069.067.109.159.109.255a.37.37 0 0 1-.368.368.35.35 0 0 1-.255-.109.36.36 0 0 1-.099-.259zm0 1.671a.34.34 0 0 1 .354-.354.35.35 0 0 1 .259.099c.069.067.109.159.109.255a.37.37 0 0 1-.368.368.35.35 0 0 1-.255-.109.36.36 0 0 1-.099-.259zm1.076-1.186c0-1.02.552-1.586 1.275-1.586s1.289.567 1.289 1.586-.552 1.572-1.289 1.572-1.275-.572-1.275-1.572zm1.983 0c0-.751-.283-1.091-.708-1.091s-.708.34-.708 1.091.3 1.076.708 1.076.722-.34.722-1.076zm.978 0c0-1.02.552-1.586 1.275-1.586s1.289.567 1.289 1.586-.552 1.572-1.289 1.572-1.275-.572-1.275-1.572zm2 0c0-.751-.3-1.091-.722-1.091s-.708.34-.708 1.091.3 1.076.708 1.076.719-.343.719-1.076zm5.52-.202h-1.062v-3.059h3.059v1.062h-2zm1.997 3.994h-3.059v-3.045h1.062v1.983h2zm4.887 0h-3.059v-1.062h2v-2h1.062zm0-3.994h-1.059v-2h-2v-1.059h3.059zm-39.645-145.194c.537-.104 1.083-.152 1.629-.142l4.7-.156h.368v.3l.071 8.059v.892l-.637-.637-.85-.85-2.153-2.153h.5l-3.357 2.974-.552.482v-.722l.156-5.935a11.16 11.16 0 0 1 .17-2.125l.156 2.323.156 5.666-.538-.241 3.314-3.031.255-.227.241.241 2.167 2.153.836.836-.623.269v-8.059l.3.3c-1.855 0-3.4-.1-4.518-.156a12.75 12.75 0 0 1-1.791-.061zm23.3 1.007a24.49 24.49 0 0 1-1.572 1.969l-4.5 5.311-.609.694v-5.311l.113.269-2.833-2.734-.623-.609h.864l6.742.241 2.422.156c-.071.028-1.1 0-2.748.127s-3.838.17-6.416.17l.241-.595 2.833 2.691.113.113v4.547l-.609-.241 4.589-4.8 1.993-1.998z"/><path d="M350.255 135.411c.085.2-1.275.935-3.031 1.671-1.019.556-2.143.894-3.3.991 1.894-1.333 4.053-2.242 6.331-2.663zm11.359-1.005a2.14 2.14 0 0 1 1.133 0 4.45 4.45 0 0 1 2.634 1.586 4.7 4.7 0 0 1 .765 4.518 4.8 4.8 0 0 1-9.065 0 4.73 4.73 0 0 1 .751-4.518 4.52 4.52 0 0 1 2.649-1.615 2.14 2.14 0 0 1 1.133 0c0 .071-.4.085-1.062.283a4.42 4.42 0 0 0-2.295 1.657c-1.264 1.722-1.019 4.122.566 5.554s3.997 1.432 5.582 0 1.83-3.831.566-5.554a4.42 4.42 0 0 0-2.295-1.657c-.693-.165-1.062-.183-1.062-.254zm1.53 6.401c-.142.142-1.119-.595-2.181-1.643l-.1-.113v-.226c0-1.5.156-2.72.368-2.72s.368 1.218.368 2.72h0l-.113-.255c1.068 1.118 1.8 2.096 1.658 2.237zm-110.492-.295c0 .212-30.92.368-69.049.368s-69.063-.156-69.063-.368 30.92-.368 69.063-.368l69.049.368z"/><circle cx="102.571" cy="140.51" r="5.453"/></g><rect width="228.888" height="141.865" rx="7.87" x="605.573" y="28.403" class="I"/><path d="M798.13 90.457c-5.467-3.343-11.586-6.19-18-5.949-9.107.34-16.7 6.728-23.526 12.747l-31.869 28.328c-1.218 1.091-2.677 2.252-4.249 2.011-1.264-.343-2.37-1.114-3.13-2.181l-28.229-31.3c-5.85-6.5-12.535-13.427-21.246-14.277-7.082-.68-13.8 2.833-19.73 6.742a141.24 141.24 0 0 0-42.208 42.931l-.34 29.6c1.87 6.388 7.578 11.161 13.626 11.161h201.663a13.81 13.81 0 0 0 13.625-12.513v-27.9c-8.154-16.314-20.772-29.977-36.387-39.4z" class="E"/><g class="B"><path d="M618.646 153.966v.439h-1.714v-.3l.921-.878c.227-.212.269-.34.269-.482a.38.38 0 0 0-.425-.326.65.65 0 0 0-.552.241l-.3-.241a1.05 1.05 0 0 1 .878-.382c.51 0 .836.255.836.666-.009.291-.15.562-.382.737l-.623.595z"/><path d="M618.887 152.818a.28.28 0 1 1 .269.269.27.27 0 0 1-.269-.269zm0 1.261c-.004-.073.023-.143.074-.195s.122-.078.195-.074a.27.27 0 0 1 .283.269c.026.113-.021.231-.117.296s-.222.065-.319 0-.142-.183-.117-.296zm1.628-2.082v2.408h-.425v-1.969h-.5v-.368zm2.55 1.813h-.467v.595h-.425v-.524h-1.275v-.312l1.147-1.5h.552l-1.091 1.416h.765v-.5h.326v.467h.411zm3.825-1.062h177.275v1.062H626.89z"/></g><g class="D"><path d="M626.748 151.657h55.395v2.833h-55.395z"/><path d="M683.941 153.272c.006 1.096-.65 2.087-1.661 2.51s-2.177.194-2.953-.58-1.009-1.939-.589-2.951 1.408-1.672 2.504-1.67c1.486.003 2.692 1.205 2.7 2.691z"/></g><g class="B"><path d="M808.612 153.243a.78.78 0 0 1-.85.765c-.638 0-1.006-.411-1.006-1.161a1.11 1.11 0 0 1 .284-.876 1.1 1.1 0 0 1 .849-.356 1.19 1.19 0 0 1 .623.142l-.17.326c-.13-.084-.284-.123-.439-.113-.439 0-.708.269-.708.807h0a.77.77 0 0 1 .623-.241c.201-.02.401.046.552.18a.72.72 0 0 1 .241.528zm-.411 0c0-.241-.184-.4-.467-.4-.118-.016-.237.018-.329.094s-.147.187-.153.306c0 .227.184.4.482.4a.41.41 0 0 0 .411-.368zm.623-.796a.27.27 0 0 1 .218-.259.27.27 0 0 1 .204.485.27.27 0 0 1-.422-.226zm0 1.275a.27.27 0 0 1 .218-.259.27.27 0 0 1 .204.485.27.27 0 0 1-.422-.226zm.836-.917c0-.765.411-1.19.963-1.19s.977.425.977 1.19-.411 1.2-.977 1.2-.963-.435-.963-1.2zm1.516 0c0-.567-.227-.821-.552-.821s-.524.255-.524.821.213.822.524.822.552-.256.552-.822zm.722 0c0-.765.425-1.19.977-1.19s.977.425.977 1.19-.425 1.2-.977 1.2-.977-.435-.977-1.2zm1.516 0c0-.567-.213-.821-.538-.821s-.538.255-.538.821.226.822.538.822.538-.256.538-.822zm4.345-.143h-1.06v-2.464h2.45v1.062h-1.39zm1.39 3.159h-2.45v-2.45h1.06v1.388h1.388zm3.839 0h-2.45v-1.062h1.388v-1.388h1.062zm0-3.173h-1.062v-1.388h-1.388v-1.062h2.45zM792.692 42.185a34.81 34.81 0 0 1 4.83-.283h.283v7.323l-.637-.637-.637-.637-1.629-1.643h.5l-2.564 2.252-.552.482v-.722a48.72 48.72 0 0 1 .312-6.133 53.95 53.95 0 0 1 .326 6.133l-.538-.241 2.521-2.309.255-.227.241.241 1.643 1.629.637.652-.623.255v-6.121l.3.283c-1.558-.008-3.114-.108-4.66-.3zm17.732.779c-.343.521-.722 1.018-1.133 1.487l-3.428 4.107-.609.68v-4.263l.113.269-2.139-2.082-.623-.609h.864l5.17.241a11.33 11.33 0 0 1 1.8.156c-.071 0-.864 0-2.124.127s-2.918.17-4.844.17l.241-.595 2.167 2.054.113.1v3.583l-.623-.241 3.513-3.583 1.542-1.601z"/><path d="M810.425 42.964c.085.184-.935.793-2.266 1.416s-2.479.864-2.55.666.935-.793 2.266-1.346 2.479-.935 2.55-.736zm8.64-.779c.286-.085.592-.085.878 0a3.37 3.37 0 0 1 2.054 1.232c.795.983 1.02 2.309.595 3.5-.5 1.532-1.929 2.569-3.541 2.569s-3.041-1.037-3.541-2.569c-.425-1.191-.2-2.517.595-3.5a3.37 3.37 0 0 1 2.054-1.232 2.21 2.21 0 0 1 .864 0c-.014 0-.3.085-.793.255-.688.226-1.284.668-1.7 1.261a3.09 3.09 0 1 0 5 0 3.36 3.36 0 0 0-1.7-1.261c-.453-.17-.765-.184-.765-.255zm1.175 4.872c-.156.142-.921-.382-1.728-1.19l-.1-.113v-.17c0-1.147.156-2.068.368-2.068s.368.921.368 2.068h0l-.113-.269c.809.835 1.347 1.6 1.205 1.742zm-84.077-.227c0 .212-23.526.368-52.534.368s-52.533-.155-52.533-.368 23.526-.368 52.548-.368l52.519.368zm-110.038.001a4.15 4.15 0 1 1-4.136-4.136 4.15 4.15 0 0 1 4.136 4.136zm197.189 123.437a11.94 11.94 0 0 0 1.855-.212 10.85 10.85 0 0 0 4.915-2.2c2.372-1.82 3.905-4.523 4.249-7.493.142-3.484 0-7.564 0-12.138l-.113-77.406v-32.36a10.92 10.92 0 0 0-8.413-9.49 15.58 15.58 0 0 0-3.47-.269H616.833a10.72 10.72 0 0 0-8 3.555A11.1 11.1 0 0 0 606 40.541v118.011c-.043 1.324.139 2.646.538 3.909.812 2.499 2.509 4.615 4.773 5.949a11.12 11.12 0 0 0 3.612 1.331c1.292.172 2.598.229 3.9.17h45.324l53.355.071 77.406.127h21.033l-21.033.071-77.406.113h-98.785a21.33 21.33 0 0 1-4.008-.184c-4.18-.72-7.616-3.698-8.923-7.733a12.64 12.64 0 0 1-.567-4.108V40.612a13.21 13.21 0 0 1 .581-4.674 11.53 11.53 0 0 1 10.949-7.9h205.56a15.44 15.44 0 0 1 3.6.3c2.362.536 4.494 1.805 6.09 3.626a11.63 11.63 0 0 1 2.833 6.388c.113 2.323 0 4.532 0 6.784v25.637l-.128 77.406-.1 12.167a11.33 11.33 0 0 1-4.32 7.592c-1.462 1.121-3.181 1.861-5 2.153-.468.077-.942.115-1.416.113z"/></g><circle cx="723.855" cy="78.076" r="15.212" class="E"/><g class="D"><path d="M489.061 83.387a7.64 7.64 0 0 0 3.6-1.3c1.261-.925 2.166-2.255 2.564-3.768a11.04 11.04 0 0 0 .213-2.974v-3.456l.184-41.4.085-13.711V9.48a20.42 20.42 0 0 0-.128-3.64 5.98 5.98 0 0 0-1.558-2.989 5.75 5.75 0 0 0-3.144-1.728 30.9 30.9 0 0 0-3.838-.071h-8.095l-16.883.1-75.182.411a6.12 6.12 0 0 0-5.935 5.666q0 4.9-.127 9.759-.085 9.731-.184 19.178l-.383 36.259v4.249c-.074 1.317.252 2.625.935 3.753a5.95 5.95 0 0 0 2.833 2.394 10.17 10.17 0 0 0 3.881.368h100.157c.335-.031.671-.031 1.006 0-.335.025-.671.025-1.006 0l-2.847.4-11.26.17-41.387.411-28.6.212-15.92.113a11.33 11.33 0 0 1-4.249-.439 7.08 7.08 0 0 1-3.47-2.833c-.801-1.309-1.19-2.829-1.119-4.362q0-2.125 0-4.249l.312-36.274q.085-9.433.17-19.178 0-4.887.128-9.915a7.41 7.41 0 0 1 7.2-6.827l75.1-.4h24.985a30.06 30.06 0 0 1 4.037.127A6.9 6.9 0 0 1 494.79 2.1a7.35 7.35 0 0 1 1.9 3.583 20.97 20.97 0 0 1 .113 3.853l-.085 7.294q-.085 7.167-.17 13.725l-.595 41.387-.071 3.47a10.75 10.75 0 0 1-.3 3.059 7.08 7.08 0 0 1-2.762 3.881 6.42 6.42 0 0 1-2.748 1.062 3.85 3.85 0 0 1-1.011-.027zm-46.741-48.27l13.965 8.385-14.192 8.428-14.192 8.413.213-16.812.227-16.812z"/></g></g></svg>